<?xml version="1.0" standalone="no"?>
<!DOCTYPE svg PUBLIC "-//W3C//DTD SVG 20010904//EN"
 "http://www.w3.org/TR/2001/REC-SVG-20010904/DTD/svg10.dtd">
<svg version="1.0" xmlns="http://www.w3.org/2000/svg"
 width="750.000000pt" height="1334.000000pt" viewBox="0 0 750.000000 1334.000000"
 preserveAspectRatio="xMidYMid meet">
<metadata>
Created by potrace 1.15, written by Peter Selinger 2001-2017
</metadata>
<g transform="translate(0.000000,1334.000000) scale(0.100000,-0.100000)"
fill="#000000" stroke="none">
<path d="M1755 13313 c3 -16 14 -80 26 -143 69 -381 69 -380 114 -380 16 0 47
5 69 11 21 6 42 7 46 2 5 -4 24 -107 44 -228 20 -121 41 -242 46 -270 5 -27
12 -65 15 -84 3 -19 8 -38 11 -43 3 -4 0 -8 -5 -8 -6 0 -11 8 -11 18 0 10 -4
22 -9 27 -5 6 -11 18 -13 28 -2 13 -17 1 -55 -48 -49 -62 -53 -71 -53 -120 0
-47 -4 -58 -34 -89 -18 -20 -41 -36 -49 -36 -10 0 -14 -6 -11 -15 7 -18 4 -18
-30 -5 -23 9 -26 7 -26 -15 0 -13 -5 -27 -10 -30 -6 -4 -8 -10 -5 -15 3 -4 -2
-13 -10 -20 -8 -7 -15 -18 -15 -24 0 -7 -15 -20 -34 -29 -25 -12 -35 -24 -38
-44 -2 -19 -12 -32 -30 -41 -16 -7 -33 -22 -38 -33 -6 -10 -18 -19 -28 -19 -9
0 -30 -16 -45 -35 -15 -19 -36 -35 -47 -35 -10 0 -36 -20 -57 -45 -20 -25 -42
-44 -47 -42 -6 2 -16 28 -22 58 -7 30 -19 83 -28 119 -34 137 -89 399 -127
600 -15 78 -16 80 -34 73 -12 -4 -15 -12 -10 -27 16 -55 43 -179 55 -251 6
-44 20 -111 31 -150 10 -38 19 -88 19 -110 0 -23 4 -45 10 -51 5 -5 17 -57 25
-114 9 -58 21 -122 26 -144 6 -21 7 -50 4 -65 -15 -52 -13 -75 5 -101 14 -19
16 -30 8 -44 -5 -10 -8 -26 -5 -36 6 -24 -74 -100 -106 -100 -26 0 -62 -33
-53 -48 3 -5 -1 -15 -9 -22 -8 -7 -22 -37 -32 -67 -14 -43 -15 -58 -5 -73 7
-11 12 -28 12 -38 0 -21 37 -57 69 -67 12 -3 21 -15 21 -25 0 -11 16 -34 35
-53 27 -26 35 -42 35 -69 0 -18 4 -38 9 -44 5 -5 12 -24 14 -42 3 -19 8 -36
11 -39 3 -3 -1 -17 -8 -32 -17 -33 -12 -126 8 -156 8 -12 11 -26 6 -31 -4 -5
-11 -56 -14 -113 -4 -72 -11 -112 -22 -129 -16 -24 -16 -26 10 -45 19 -13 24
-23 17 -31 -6 -7 -7 -27 -1 -51 5 -22 8 -67 7 -100 0 -33 5 -70 11 -82 7 -12
12 -31 12 -42 0 -11 5 -23 11 -26 6 -4 8 -12 6 -19 -7 -17 11 -187 21 -200 14
-19 35 -93 30 -107 -3 -8 3 -30 13 -49 9 -20 18 -60 20 -90 3 -56 4 -61 31
-115 9 -16 21 -55 28 -85 7 -30 19 -75 27 -100 9 -25 17 -68 18 -97 3 -44 0
-53 -16 -58 -24 -8 -24 -12 2 -79 l20 -55 -34 -34 c-21 -22 -40 -55 -51 -93
-10 -32 -39 -124 -66 -204 -26 -80 -58 -177 -69 -217 -21 -69 -25 -73 -107
-141 -104 -86 -150 -141 -164 -193 -12 -42 -6 -115 12 -162 10 -25 7 -31 -17
-57 -16 -17 -35 -30 -43 -30 -22 0 -165 -152 -189 -202 -25 -50 -29 -119 -14
-223 31 -203 32 -208 19 -217 -9 -6 -6 -7 8 -3 18 4 29 -4 59 -47 21 -29 42
-54 46 -56 4 -2 19 -12 33 -23 32 -26 21 -53 -24 -63 -20 -4 -29 -10 -24 -17
4 -8 3 -9 -4 -5 -16 9 -40 -15 -35 -34 3 -10 -18 -33 -59 -65 -35 -27 -67 -55
-71 -62 -4 -7 -16 -13 -26 -13 -10 0 -26 -9 -36 -20 -18 -20 -18 -21 1 -14 10
3 -6 -17 -36 -46 -30 -28 -82 -77 -115 -109 -33 -31 -76 -63 -95 -70 -19 -7
-50 -19 -68 -27 -63 -27 -86 -10 -58 45 9 17 16 34 15 38 0 4 4 9 10 11 6 2
11 -8 11 -22 0 -39 23 -32 85 24 30 28 62 50 70 50 21 0 19 18 -3 22 -12 3 -6
9 20 21 21 9 38 21 38 26 0 6 6 11 13 11 6 1 29 22 49 48 21 26 60 71 88 101
27 30 50 58 50 63 0 13 -26 9 -80 -12 -28 -11 -60 -20 -70 -20 -11 0 -20 -4
-20 -10 0 -5 -9 -10 -19 -10 -11 0 -23 -5 -26 -10 -3 -6 -15 -10 -25 -10 -10
0 -25 -9 -32 -19 -8 -11 -31 -22 -52 -26 -21 -4 -49 -18 -63 -31 -28 -26 -39
-29 -48 -14 -4 7 -12 7 -25 0 -29 -15 -40 -12 -40 11 0 18 -4 20 -28 15 -15
-4 -31 -12 -37 -19 -5 -7 -18 -12 -27 -13 -55 -2 -68 -5 -82 -19 -8 -8 -19
-15 -25 -15 -6 0 -8 -19 -4 -52 6 -48 5 -51 -13 -44 -10 5 -27 11 -37 13 -9 3
-17 10 -17 15 0 5 -10 8 -22 6 -17 -2 -24 -11 -26 -30 -2 -16 -8 -28 -13 -28
-5 0 -9 -77 -9 -185 0 -173 1 -185 18 -185 25 0 58 -35 42 -45 -6 -4 -19 0
-29 9 -10 9 -21 16 -24 16 -4 0 -7 -164 -7 -365 0 -349 4 -401 30 -425 10 -9
34 -65 31 -74 -1 -5 12 -21 30 -37 18 -16 29 -34 26 -42 -3 -8 -1 -19 4 -24
15 -15 -12 -32 -43 -26 -29 5 -36 17 -18 28 16 10 12 28 -5 21 -11 -4 -15 1
-15 19 0 14 -9 39 -19 56 l-19 32 1 -108 c2 -80 6 -109 15 -113 7 -2 16 5 19
16 5 21 39 36 48 22 7 -11 -55 -70 -72 -70 -20 0 -16 -61 5 -77 16 -14 16 -14
-1 -9 -14 4 -17 -1 -17 -29 0 -28 4 -35 20 -35 11 0 23 0 28 -1 4 0 12 8 17
18 6 10 14 21 19 25 6 4 4 13 -4 23 -12 15 -12 18 3 27 13 7 15 13 7 28 -7 14
-5 27 8 49 17 31 39 43 28 16 -7 -18 5 -20 22 -3 9 9 12 9 12 1 0 -7 -5 -15
-10 -18 -6 -3 -10 -11 -10 -16 0 -6 4 -7 10 -4 5 3 10 -3 10 -13 0 -11 -7 -22
-15 -26 -25 -9 -13 -208 15 -243 11 -14 20 -32 20 -39 0 -8 6 -14 14 -14 7 0
16 -9 19 -21 8 -28 -25 -21 -38 9 -13 29 -45 29 -45 0 0 -13 7 -36 15 -51 8
-15 13 -43 11 -62 -2 -27 1 -35 15 -35 23 0 37 -21 33 -47 -4 -22 18 -33 29
-15 2 4 2 1 0 -6 -1 -7 2 -23 9 -35 6 -12 13 -38 14 -57 3 -74 16 -120 33
-120 35 0 45 17 43 77 0 47 2 55 11 42 7 -9 21 -18 32 -20 15 -3 21 -13 22
-44 4 -57 -13 -85 -51 -85 -24 0 -27 -3 -16 -10 13 -8 13 -10 -1 -10 -10 0
-19 -11 -22 -30 -4 -16 -16 -39 -27 -50 -11 -11 -20 -25 -20 -31 0 -6 -7 -9
-15 -6 -8 4 -17 2 -20 -3 -4 -6 -1 -10 4 -10 6 0 11 -4 11 -10 0 -5 -7 -10
-15 -10 -8 0 -15 -4 -15 -10 0 -5 -9 -10 -20 -10 -11 0 -20 4 -20 10 0 6 -9 6
-26 0 -63 -24 -102 3 -94 65 3 22 0 61 -8 88 -7 26 -10 62 -7 80 5 24 2 37 -9
46 -8 7 -13 18 -10 26 3 7 1 16 -5 20 -17 10 -15 -1328 1 -1356 10 -17 10 -23
1 -26 -7 -3 -13 -13 -13 -24 0 -17 8 -19 80 -19 78 0 80 1 80 24 0 14 5 28 10
31 18 11 11 42 -24 109 -35 66 -54 126 -40 126 3 0 18 -12 31 -26 29 -32 42
-25 19 10 -9 14 -16 32 -16 40 0 9 -9 33 -20 54 -12 22 -22 52 -23 68 l-2 29
108 6 c59 3 118 5 130 4 12 -1 86 -3 165 -4 108 -1 142 -4 141 -13 -4 -27 14
-79 30 -87 22 -12 109 -31 156 -36 31 -2 47 2 70 21 l30 24 -33 0 c-36 0 -68
24 -74 55 -1 11 -12 23 -23 27 -12 3 3 7 35 7 65 2 533 3 573 2 37 -1 56 -45
64 -152 6 -78 12 -89 41 -70 13 8 17 88 10 183 l-3 37 62 12 c53 11 63 16 68
37 5 22 100 121 115 122 3 0 30 23 59 50 30 28 60 49 67 46 14 -5 70 19 79 35
10 14 25 11 25 -7 0 -9 5 -12 12 -8 8 5 9 2 5 -9 -4 -10 -2 -17 4 -17 7 0 9
-10 5 -26 -6 -23 -4 -26 14 -21 17 4 20 2 15 -14 -5 -15 -1 -19 14 -19 13 0
21 -6 21 -18 0 -9 12 -34 26 -55 22 -33 25 -46 20 -90 l-5 -52 22 38 c19 33
26 38 49 33 21 -4 26 -2 21 9 -3 8 -2 15 1 15 4 0 10 -10 15 -23 12 -31 42
-35 174 -22 73 8 92 16 65 29 -7 3 0 4 16 1 23 -5 27 -3 23 9 -4 10 -1 16 7
16 10 0 12 11 8 45 -3 28 -1 45 6 45 6 0 13 -6 15 -12 3 -8 6 -6 6 5 1 11 -6
17 -19 17 -27 0 -25 13 5 27 22 10 25 9 26 -10 0 -12 3 -16 6 -9 8 19 23 14
23 -8 0 -11 5 -20 10 -20 6 0 10 -18 10 -40 0 -23 -5 -40 -11 -40 -8 0 -9 -4
0 -13 6 -8 8 -17 4 -21 -12 -11 19 -26 54 -26 38 0 46 10 43 56 -1 19 -3 52
-4 74 0 22 -4 40 -7 40 -3 0 -6 14 -6 30 0 18 6 30 14 30 16 0 17 12 1 29 -11
11 -9 12 8 2 19 -9 23 -7 28 15 4 14 4 29 1 34 -4 6 -1 10 4 10 7 0 11 -25 11
-61 0 -37 4 -58 10 -54 5 3 10 35 10 71 0 62 1 65 23 62 20 -3 23 -11 32 -93
6 -49 15 -98 19 -108 5 -10 9 -41 10 -70 1 -51 2 -52 34 -55 31 -3 39 6 33 40
0 5 -3 34 -6 65 -3 32 -7 79 -10 105 -4 38 -1 47 13 51 16 4 16 5 0 6 -19 1
-27 51 -8 51 6 0 10 -6 10 -13 0 -7 8 -22 19 -33 19 -21 26 -74 10 -74 -5 0
-4 -9 3 -20 7 -11 19 -18 26 -15 7 2 22 -3 33 -13 22 -18 54 -72 51 -85 -1 -4
5 -7 13 -7 8 0 14 -3 14 -7 -3 -20 2 -24 16 -13 10 9 15 9 15 1 0 -6 8 -11 19
-11 10 0 21 -9 24 -20 4 -15 14 -20 40 -20 29 0 43 -9 96 -66 46 -50 66 -65
81 -61 11 3 17 1 14 -4 -7 -12 37 -72 86 -117 44 -41 70 -57 70 -42 0 5 -6 10
-13 10 -17 0 -19 67 -2 74 16 6 26 -39 12 -53 -7 -7 -5 -12 6 -16 9 -4 14 -12
11 -19 -5 -12 33 -92 58 -123 5 -7 7 -16 5 -20 -3 -5 1 -17 8 -27 12 -15 32
-19 123 -24 61 -2 122 -2 136 2 26 6 26 7 9 34 -10 14 -26 35 -36 45 -11 11
-16 25 -12 38 4 11 2 19 -6 19 -20 0 -38 33 -39 73 0 20 3 37 6 37 9 0 49 -54
46 -62 -1 -5 4 -8 12 -8 8 0 19 -12 25 -27 6 -16 27 -50 46 -78 19 -27 36 -54
38 -60 4 -9 204 -11 252 -2 21 4 23 20 11 74 -6 27 -5 33 9 33 12 0 16 -6 12
-20 -3 -10 1 -27 8 -37 9 -13 10 -23 3 -37 -7 -13 -7 -16 1 -11 7 4 18 2 25
-4 7 -6 71 -12 145 -13 l132 -3 -221 -222 c-208 -210 -220 -223 -221 -260 -1
-52 -10 -71 -43 -88 -36 -19 -50 -19 -42 0 7 19 -5 19 -30 1 -19 -15 -19 -15
0 -29 29 -22 11 -40 -33 -32 -35 6 -40 3 -75 -39 -26 -33 -33 -46 -22 -46 9 0
16 7 16 16 0 13 3 14 13 5 8 -6 16 -9 19 -6 2 3 19 1 36 -4 18 -5 32 -6 32 -2
0 4 16 15 34 24 35 16 35 16 59 -12 48 -58 137 -79 185 -46 20 15 23 14 42 -3
21 -19 28 -64 35 -207 3 -71 4 -75 25 -75 14 0 20 -7 21 -22 2 -32 2 -31 -5
-54 -5 -15 0 -23 21 -32 25 -10 22 -11 -26 -7 -61 5 -93 -12 -84 -44 3 -11 0
-22 -6 -25 -6 -4 -11 -15 -11 -25 0 -10 -9 -21 -20 -24 -13 -3 -18 -10 -14
-21 3 -9 1 -17 -5 -17 -26 -3 -30 -4 -37 -11 -4 -5 -2 -8 5 -8 6 0 1 -11 -13
-25 -18 -18 -33 -24 -60 -21 -20 1 -34 0 -31 -2 8 -9 -28 -36 -51 -38 -32 -3
-30 7 6 39 17 15 30 31 30 36 0 5 9 13 20 16 11 3 20 12 20 20 0 7 11 23 25
36 25 24 33 49 16 49 -5 0 -14 -7 -21 -15 -12 -15 -32 -15 -179 1 -40 4 -66 3
-70 -4 -4 -7 -20 -4 -46 8 -22 10 -41 15 -43 10 -2 -4 -20 1 -41 11 -45 21
-55 48 -40 103 11 39 3 56 -26 56 -30 0 -39 -18 -27 -57 7 -24 8 -41 2 -47 -6
-6 -10 -20 -10 -32 0 -25 -24 -49 -40 -39 -6 4 -17 2 -24 -5 -11 -9 -14 -4
-14 25 0 44 -4 49 -45 49 -21 1 -32 6 -32 16 0 8 -10 16 -22 18 -24 4 -31 18
-12 24 21 7 -9 48 -35 48 -13 0 -29 7 -36 14 -17 22 -80 40 -92 28 -14 -14 6
-49 33 -57 11 -4 18 -13 15 -20 -6 -16 20 -40 52 -50 16 -4 21 -12 18 -22 -4
-9 4 -23 20 -35 14 -11 23 -27 20 -34 -3 -8 -1 -14 4 -14 15 0 12 -37 -3 -43
-7 -3 -6 -6 5 -6 23 -1 61 -57 63 -93 1 -21 -2 -27 -12 -23 -8 3 -21 5 -28 5
-7 0 -16 15 -19 34 -9 46 -35 55 -176 60 -114 4 -113 4 -106 22 4 10 -7 28
-30 50 -44 41 -48 42 -40 10 3 -14 1 -28 -4 -31 -6 -4 -2 -13 10 -23 26 -22
43 -107 25 -122 -10 -8 -15 -8 -20 0 -4 7 -16 9 -27 7 -11 -3 -27 2 -38 13
-11 11 -27 16 -39 13 -12 -3 -21 -1 -22 3 0 5 -2 19 -3 31 -1 12 1 20 5 18 9
-6 21 43 13 56 -8 14 15 39 36 39 11 0 20 10 24 25 5 19 13 25 32 25 20 0 25
4 20 16 -8 21 11 44 36 44 15 0 19 5 16 18 -6 20 20 42 47 42 12 0 13 4 6 19
-11 19 -58 34 -66 21 -3 -4 -24 -10 -47 -14 -29 -5 -50 -16 -64 -33 -20 -25
-64 -40 -64 -21 0 4 -9 8 -21 8 -18 0 -20 4 -14 33 4 17 11 36 16 41 5 6 9 16
9 23 0 10 -22 13 -90 12 -69 -1 -90 -5 -90 -15 0 -8 -6 -23 -12 -34 -9 -14
-10 -22 -1 -31 8 -8 6 -16 -8 -30 -10 -10 -19 -26 -19 -34 0 -8 -8 -15 -17
-16 -11 0 -13 -3 -6 -6 23 -9 -5 -43 -35 -43 -15 0 -36 -7 -46 -15 -22 -17
-76 -20 -76 -5 0 6 -13 10 -28 10 -34 0 -53 16 -45 39 5 13 3 14 -8 3 -19 -17
-49 -15 -49 4 0 9 6 14 13 11 9 -3 13 3 13 17 -1 15 6 22 22 24 16 2 22 8 18
18 -7 19 3 44 18 44 6 0 17 14 23 30 6 17 8 30 3 30 -21 0 -40 -14 -40 -29 0
-13 -2 -13 -9 -2 -6 9 -11 10 -15 2 -11 -17 -44 -13 -49 7 -4 13 -5 12 -6 -5
-1 -13 6 -24 17 -27 26 -9 24 -33 -2 -30 -12 1 -30 3 -42 3 -15 1 -26 13 -37
41 l-15 40 -1095 0 c-601 0 -1142 3 -1201 7 l-106 6 0 -330 c1 -272 4 -334 16
-351 13 -18 12 -21 -3 -25 -16 -4 -16 -5 -1 -6 12 -1 19 -14 24 -47 9 -64 -3
-203 -21 -247 -12 -30 -15 -102 -15 -432 l0 -395 3750 0 3750 0 0 298 c0 286
-1 298 -20 310 -11 7 -20 17 -20 23 0 5 5 7 10 4 6 -3 10 1 10 9 0 9 -4 16 -9
16 -4 0 -16 35 -25 77 -10 43 -24 102 -32 131 -8 28 -16 85 -17 125 -1 39 -6
78 -11 85 -4 7 -4 27 0 45 4 17 7 39 5 49 -1 9 3 19 9 23 16 10 12 62 -7 81
-15 14 -18 36 -18 118 -1 210 -33 345 -102 429 -27 34 -29 49 -5 45 19 -3 20
1 8 55 -5 20 -13 37 -19 37 -6 0 -8 2 -5 5 9 10 58 -14 58 -28 0 -7 5 -18 12
-25 6 -6 13 -26 14 -44 6 -58 13 -75 34 -81 18 -4 18 -8 8 -38 -9 -27 -8 -34
5 -44 10 -7 17 -18 17 -25 0 -9 -3 -10 -14 -1 -11 9 -15 8 -20 -4 -3 -9 -2
-14 3 -11 5 3 8 -10 6 -29 -4 -41 11 -55 30 -29 12 16 13 -2 10 -128 -1 -80
-6 -151 -10 -158 -4 -6 0 -19 7 -28 8 -9 23 -37 32 -62 21 -53 35 -72 47 -64
12 7 11 615 -1 634 -5 8 -4 22 2 33 13 26 -5 45 -26 28 -10 -8 -16 -9 -21 -1
-3 5 1 12 9 15 9 3 22 7 30 9 11 4 13 27 11 113 -2 59 -6 127 -10 149 -4 27
-3 44 4 48 14 9 14 143 0 152 -6 3 -9 17 -7 29 4 18 1 22 -10 17 -11 -4 -14
-1 -9 11 3 9 2 19 -2 21 -5 3 -12 20 -16 38 -4 18 -9 27 -12 21 -7 -19 -43
-16 -43 4 0 16 -1 15 -13 -1 -12 -16 -16 -15 -61 10 -26 15 -50 33 -53 40 -3
8 -9 11 -14 8 -12 -7 -11 -64 1 -64 6 0 10 -8 10 -17 0 -15 -2 -16 -10 -3 -9
13 -10 13 -11 0 0 -8 -2 -26 -4 -40 -2 -14 -4 -69 -6 -123 -1 -58 -7 -108 -15
-123 -8 -15 -14 -33 -14 -40 0 -8 -7 -14 -16 -14 -11 0 -14 5 -9 18 18 45 27
159 22 276 -5 111 -8 131 -26 147 -11 10 -21 15 -23 10 -6 -15 -48 8 -48 26
-1 26 -25 54 -42 48 -15 -6 -48 33 -48 56 0 7 -7 21 -16 30 -16 17 -15 18 22
14 21 -3 45 -12 53 -19 19 -16 90 -38 102 -30 5 2 6 11 3 18 -5 13 61 76 78
76 20 0 5 -31 -22 -47 -16 -9 -30 -26 -30 -36 0 -17 2 -17 22 -3 12 9 26 16
30 16 15 0 8 -42 -12 -67 -42 -53 -21 -75 98 -103 28 -6 52 -16 52 -22 0 -5 5
-6 11 -2 10 6 30 -1 82 -27 12 -7 17 -5 17 6 0 8 -5 15 -11 15 -5 0 -8 4 -4 9
3 5 2 12 -3 15 -5 3 -7 19 -4 36 2 16 1 60 -3 96 -9 90 -26 70 -28 -35 -2 -45
-6 -81 -10 -81 -4 0 -11 0 -17 0 -13 0 -13 37 0 45 6 4 8 10 6 14 -5 8 -18
218 -17 263 1 17 -7 35 -19 45 -11 10 -20 26 -20 37 0 11 -7 27 -15 36 -8 9
-16 37 -18 61 -1 24 -6 47 -11 51 -6 4 -5 12 1 20 8 10 8 18 -1 31 -17 23 -25
22 -19 -3 8 -28 -8 -25 -40 10 -26 28 -66 43 -52 20 3 -5 1 -10 -4 -10 -6 0
-10 -3 -10 -7 1 -5 1 -10 -1 -13 -8 -22 -8 -50 0 -45 5 3 10 0 10 -9 0 -8 -5
-16 -11 -18 -14 -5 0 -38 17 -38 8 0 14 -4 14 -10 0 -5 -8 -10 -17 -10 -14 0
-15 -2 -4 -9 11 -7 11 -9 0 -14 -12 -4 -11 -7 1 -16 12 -9 10 -11 -12 -11 -28
0 -38 15 -15 23 6 2 9 8 4 12 -4 5 -14 0 -22 -11 -15 -18 -16 -15 -14 31 4 83
-3 281 -8 260 -3 -11 -17 -30 -30 -43 -16 -14 -23 -29 -19 -39 4 -9 1 -20 -6
-25 -9 -6 -7 -8 7 -6 17 3 20 -3 21 -45 2 -52 -12 -70 -33 -42 -15 22 -17 39
-3 30 6 -3 10 1 10 10 0 9 -4 13 -10 10 -5 -3 -19 -1 -30 5 -16 9 -20 8 -20
-5 0 -8 5 -15 10 -15 6 0 10 -11 10 -24 0 -14 5 -28 10 -31 6 -3 10 -15 10
-25 0 -10 8 -23 18 -29 16 -9 15 -11 -5 -30 -31 -29 -38 -27 -85 21 l-41 42
-18 -23 c-26 -32 -40 -18 -33 33 7 50 -20 151 -42 160 -8 3 -11 15 -8 30 2 15
0 26 -6 26 -5 0 -10 7 -10 15 0 8 -4 15 -9 15 -4 0 -8 17 -8 39 0 27 -9 50
-28 76 -21 27 -30 51 -33 93 -2 31 -9 62 -14 69 -13 17 -36 133 -28 138 15 9
32 -25 27 -52 -3 -15 1 -36 9 -49 8 -12 13 -27 12 -35 -2 -7 8 -18 22 -25 19
-10 25 -21 25 -46 0 -28 5 -35 38 -50 42 -20 44 -26 20 -43 -21 -15 -9 -35 22
-35 13 0 27 -5 30 -10 3 -6 16 -8 29 -4 12 3 42 -2 67 -10 66 -23 118 -21 128
6 7 19 8 19 14 4 4 -10 5 -22 1 -27 -3 -5 1 -11 8 -13 84 -24 107 -32 131 -49
15 -10 40 -22 56 -27 l29 -8 -5 56 c-6 68 -29 159 -43 167 -6 3 -10 19 -10 36
0 16 -4 29 -8 29 -16 0 -29 45 -24 82 3 28 0 39 -12 44 -9 3 -16 12 -16 20 0
7 -7 17 -17 22 -10 6 -14 16 -10 26 4 10 3 15 -3 11 -6 -3 -10 3 -10 15 0 25
-20 48 -38 42 -17 -5 -4 -107 21 -157 21 -42 32 -118 21 -145 -5 -11 -8 -9
-13 9 -10 39 -28 35 -35 -6 -8 -45 -26 -93 -35 -93 -3 0 -6 10 -7 23 -3 64 -7
96 -17 141 -19 81 -62 72 -50 -11 6 -46 -2 -53 -37 -31 -17 11 -22 10 -30 -2
-7 -12 -13 -11 -37 10 -15 14 -31 29 -34 34 -4 5 -14 6 -22 3 -8 -3 -31 5 -50
19 -20 13 -40 24 -46 24 -17 0 -53 69 -46 90 5 14 2 20 -9 20 -10 0 -16 9 -16
21 0 12 -8 23 -20 26 -23 6 -25 12 -41 125 -7 49 -17 88 -22 88 -5 0 -4 6 2
14 10 11 10 29 1 78 -7 35 -14 70 -17 78 -6 15 -4 42 3 49 7 7 33 -33 34 -50
0 -29 29 -42 103 -45 94 -3 144 -13 158 -30 6 -8 20 -14 29 -14 10 0 32 -8 49
-17 16 -10 33 -14 37 -10 4 4 1 33 -6 64 -7 32 -15 52 -17 46 -8 -22 -19 -14
-33 22 -16 40 -16 40 -37 20 -8 -9 -23 -13 -33 -10 -9 3 -22 0 -28 -8 -14 -17
-80 -21 -98 -6 -11 9 -14 8 -14 -2 0 -8 -9 -4 -23 9 -13 12 -27 22 -32 22 -5
0 -19 10 -32 21 -19 18 -25 20 -38 9 -13 -11 -18 -10 -30 6 -8 10 -12 25 -10
32 2 7 0 23 -5 37 -5 13 -11 60 -14 103 -3 43 -8 85 -12 95 -4 11 -1 17 7 17
11 0 11 2 0 9 -11 7 -14 25 -12 61 1 28 -1 56 -6 63 -5 7 -16 32 -23 57 -8 25
-31 64 -52 87 -44 49 -51 74 -10 37 15 -15 40 -32 55 -40 34 -18 54 -9 35 14
-42 53 -65 147 -44 181 5 8 0 24 -13 42 -16 21 -21 43 -21 88 0 38 -4 61 -12
64 -7 3 -8 6 -2 6 7 1 6 25 -3 79 -10 57 -11 88 -3 120 10 39 8 45 -17 78 -24
32 -25 38 -12 48 13 9 14 15 3 41 -22 51 -16 93 28 189 22 50 51 129 64 174
12 46 24 86 27 88 3 3 24 -8 48 -23 24 -15 53 -34 64 -41 11 -7 41 -23 67 -35
26 -12 48 -27 48 -33 0 -7 9 -14 20 -17 11 -3 20 -10 20 -16 0 -14 -27 -14
-35 0 -4 5 -12 8 -18 6 -7 -2 -29 7 -49 20 -21 12 -44 23 -52 23 -8 0 -18 5
-21 11 -7 11 -55 32 -61 26 -2 -2 5 -22 16 -45 11 -22 20 -50 20 -61 0 -11 5
-23 10 -26 6 -3 10 -12 10 -18 0 -7 -10 1 -23 17 -12 16 -33 40 -47 53 -23 23
-25 23 -28 7 -2 -11 -11 -25 -20 -31 -14 -12 -13 -16 11 -41 15 -16 37 -46 48
-68 12 -21 27 -50 35 -64 7 -14 27 -39 44 -55 17 -17 38 -45 47 -62 8 -18 19
-30 24 -27 5 3 12 -2 15 -11 4 -9 12 -14 20 -11 16 6 38 -19 31 -36 -4 -8 -6
-7 -6 5 -1 9 -6 17 -11 17 -6 0 -8 -16 -4 -41 l7 -42 -32 19 c-17 10 -33 25
-36 34 -9 26 -101 120 -118 120 -10 0 -17 -5 -17 -10 0 -6 -11 -20 -25 -32
-45 -39 -29 -71 60 -118 6 -3 28 -17 50 -31 106 -68 172 -103 192 -101 13 1
23 -4 23 -11 0 -14 75 -87 90 -87 5 0 10 -6 10 -12 1 -13 73 -68 88 -68 5 0
19 -11 32 -25 13 -14 31 -25 40 -25 20 0 55 -96 45 -122 -4 -9 -2 -19 4 -23
15 -9 14 -35 -2 -35 -10 0 -13 -24 -14 -98 0 -53 -6 -123 -11 -155 -6 -31 -9
-63 -6 -70 3 -8 -2 -20 -11 -27 -15 -13 -16 -9 -11 41 3 30 8 73 12 96 7 43
-6 232 -13 201 -3 -10 -11 -18 -19 -18 -9 0 -14 -10 -14 -27 -1 -27 -1 -27
-15 -9 -8 11 -15 27 -15 36 0 9 -15 38 -34 65 -19 26 -32 53 -30 60 3 6 -2 18
-11 25 -8 7 -15 18 -15 25 0 6 -9 20 -19 29 -15 14 -24 15 -40 6 -16 -8 -21
-8 -21 2 -1 8 -7 5 -15 -6 -14 -18 -15 -14 -16 50 -3 120 -4 122 -51 118 -42
-3 -68 4 -68 19 0 7 -17 26 -37 42 -20 17 -50 43 -65 60 -32 34 -33 30 -14
-40 18 -67 100 -252 116 -265 6 -5 30 -67 30 -78 0 -2 -6 1 -14 7 -17 14 -30
-9 -31 -53 l0 -29 -80 -2 c-44 -2 -82 -3 -84 -4 -2 0 4 -10 14 -21 10 -11 22
-17 26 -14 18 11 199 -51 199 -68 0 -4 7 -8 15 -8 8 0 19 -9 25 -20 6 -11 16
-20 23 -20 7 0 32 -43 56 -96 37 -80 50 -98 80 -113 20 -10 50 -26 66 -35 40
-21 55 -20 55 5 0 11 4 17 10 14 6 -4 8 -16 5 -26 -6 -18 31 -81 57 -100 5 -3
12 -23 15 -45 3 -21 13 -44 20 -49 11 -8 13 -21 8 -48 -10 -54 -23 -54 -30 0
-10 72 -43 133 -72 133 -19 0 -23 4 -19 18 7 21 -13 54 -21 35 -2 -7 -13 -13
-24 -13 -14 0 -19 -7 -19 -29 0 -28 33 -99 53 -112 5 -4 6 -21 2 -38 -5 -22 1
-55 20 -111 15 -44 26 -97 24 -117 -1 -22 7 -57 19 -83 12 -25 22 -52 22 -61
0 -8 7 -24 15 -35 8 -10 15 -26 15 -34 0 -8 10 -35 22 -60 12 -25 22 -47 23
-50 1 -3 7 -25 14 -50 7 -25 23 -58 35 -75 12 -16 22 -43 22 -60 -1 -16 2 -32
5 -35 7 -7 47 -179 47 -209 1 -13 8 -31 17 -40 13 -14 15 -13 15 10 0 14 5 30
12 37 7 7 14 51 16 102 4 83 3 90 -14 90 -18 1 -18 2 -2 13 14 12 16 33 12
181 -2 92 -7 173 -11 179 -10 16 -12 51 -3 57 4 3 10 19 13 37 7 35 1 42 -52
63 -30 12 -35 12 -46 -3 -20 -28 -34 -20 -41 22 -4 22 -12 42 -19 45 -7 2 -16
27 -20 55 -4 28 -11 53 -16 57 -11 6 -12 34 -1 34 4 0 12 -14 17 -32 10 -33
35 -51 35 -24 0 8 4 17 9 21 6 3 8 -16 5 -47 -7 -78 8 -99 75 -104 52 -4 53
-4 47 18 -4 13 -10 38 -13 56 -3 19 -11 36 -17 38 -7 3 -11 27 -9 62 2 69 -4
92 -23 92 -8 0 -14 11 -15 28 -1 15 -2 32 -4 37 -1 6 -3 24 -3 42 -2 25 -6 31
-18 26 -9 -3 -14 -13 -11 -24 6 -22 -12 -37 -23 -19 -4 7 -8 44 -9 83 -1 48
-6 74 -16 81 -8 6 -19 44 -26 86 -6 41 -14 80 -18 85 -4 6 -8 24 -10 40 -1 17
-7 34 -12 39 -16 17 -10 33 13 32 27 -1 35 26 14 46 -10 10 -13 28 -10 54 2
21 6 124 8 227 2 103 7 191 10 194 3 4 6 33 6 65 0 58 -7 73 -54 119 -10 10
-23 16 -27 13 -4 -2 -5 11 -2 31 3 21 1 41 -7 50 -10 12 -9 16 2 20 16 6 13
51 -3 61 -5 3 -9 13 -9 22 0 40 -134 262 -158 262 -7 0 -17 11 -22 25 -7 18
-18 25 -37 26 -16 1 -37 2 -47 3 -16 1 -21 9 -22 39 -3 42 -18 67 -40 67 -8 0
-14 5 -14 10 0 6 -9 20 -20 32 -11 12 -20 28 -20 35 0 7 -6 13 -14 13 -8 0
-16 6 -19 13 -2 6 -7 10 -10 7 -8 -8 127 -229 140 -230 7 0 20 -15 29 -32 9
-18 20 -35 23 -38 15 -13 62 -81 71 -105 9 -23 8 -25 -10 -15 -11 6 -31 27
-46 48 -14 20 -24 30 -22 22 3 -8 -5 -23 -16 -32 l-21 -18 31 -27 c17 -16 55
-44 85 -63 53 -35 149 -124 149 -137 0 -5 -4 -14 -9 -22 -7 -10 -12 -10 -30 5
-11 10 -21 24 -21 32 0 7 -4 11 -8 8 -5 -3 -25 13 -45 34 -54 59 -78 49 -39
-15 26 -42 43 -95 31 -95 -5 0 -9 5 -9 11 0 6 -13 27 -30 46 -16 18 -30 41
-30 51 -1 19 -30 62 -30 43 0 -7 -4 -9 -10 -6 -5 3 -10 -1 -10 -9 0 -18 -16
-29 -30 -21 -8 5 -7 11 0 20 8 10 8 19 1 34 -8 14 -8 22 0 26 6 4 7 14 3 24
-9 22 -6 61 6 76 7 9 6 16 -5 25 -8 7 -12 16 -9 21 3 5 0 25 -7 43 -11 31 -14
33 -26 18 -9 -12 -15 -14 -20 -6 -5 7 -17 14 -28 17 -19 5 -19 5 2 12 20 6 21
9 7 22 -13 14 -17 13 -33 -1 -18 -16 -19 -16 -17 0 0 10 -8 20 -19 23 -32 9
-95 55 -95 69 0 7 -11 18 -25 24 -14 6 -25 16 -25 22 0 6 14 67 31 136 42 171
52 228 58 350 8 171 4 427 -7 473 -6 23 -16 71 -23 107 -6 36 -17 74 -23 85
-7 11 -13 33 -14 49 -1 16 -9 37 -17 46 -8 9 -15 21 -15 27 0 6 -12 35 -26 65
-14 29 -33 69 -42 88 -10 19 -24 43 -32 53 -8 10 -14 20 -12 23 2 3 -22 32
-53 66 -30 34 -55 67 -55 74 0 7 -4 14 -9 16 -5 2 -22 27 -37 56 -23 42 -40
60 -79 80 -27 15 -59 37 -70 49 -11 12 -51 43 -90 68 -38 26 -77 59 -86 74
-25 41 -73 78 -128 96 -27 9 -55 23 -61 31 -7 7 -18 14 -24 14 -7 0 -41 20
-77 45 -35 25 -69 45 -75 45 -6 0 -17 6 -23 14 -7 8 -25 18 -41 21 -16 3 -34
13 -41 21 -14 17 -105 64 -124 64 -18 0 -22 -18 -30 -135 -4 -55 -12 -127 -20
-160 -18 -81 -63 -334 -75 -420 -6 -44 -6 -72 0 -75 6 -4 -6 -12 -25 -20 -39
-15 -42 -22 -20 -40 16 -13 14 -61 -6 -131 -17 -61 -27 -71 -60 -64 -37 8 -61
-25 -52 -75 3 -19 5 -54 4 -77 -1 -24 3 -43 9 -43 5 0 10 -6 10 -14 0 -16 -27
-29 -41 -20 -5 3 -14 -8 -20 -25 -12 -34 -24 -38 -48 -17 -20 19 -47 5 -38
-19 5 -11 13 -14 26 -10 23 7 39 -13 17 -21 -10 -4 -16 -18 -16 -35 0 -26 2
-28 25 -19 14 5 25 6 25 1 0 -5 -7 -12 -16 -15 -8 -3 -13 -10 -10 -15 3 -5 -1
-12 -10 -15 -22 -8 -26 -8 -19 4 4 6 -1 24 -9 41 -9 17 -13 35 -11 39 6 10
-43 6 -53 -4 -3 -4 -1 -10 5 -14 21 -13 21 -77 -1 -69 -17 7 -51 -28 -41 -43
3 -5 10 -8 15 -5 5 3 11 1 15 -5 4 -6 11 -7 17 -4 6 4 9 1 6 -7 -3 -8 -14 -15
-26 -17 -12 -2 -22 -8 -22 -13 0 -5 -7 -9 -15 -9 -12 0 -13 -4 -5 -19 15 -29
12 -40 -10 -34 -29 8 -45 -17 -44 -65 0 -37 -3 -45 -23 -53 -13 -5 -26 -15
-29 -23 -3 -9 -15 -18 -25 -21 -11 -4 -22 -19 -26 -35 -3 -16 -11 -31 -19 -34
-8 -3 -14 -12 -14 -21 0 -12 -6 -14 -26 -9 -17 4 -29 2 -34 -7 -11 -17 -3 -29
21 -29 26 0 24 -15 -6 -34 -34 -22 -47 -12 -40 32 3 20 2 31 -1 25 -3 -7 -11
-13 -19 -13 -9 0 -11 12 -7 45 4 37 2 45 -12 45 -9 0 -16 -8 -16 -20 0 -11 -7
-23 -15 -26 -10 -4 -13 -13 -10 -25 9 -27 -4 -24 -16 4 -9 20 -9 20 -4 -5 4
-20 0 -28 -13 -32 -10 -4 -23 -25 -31 -51 -12 -42 -16 -45 -47 -45 -19 0 -34
-4 -34 -10 0 -5 7 -10 15 -10 8 0 15 -4 15 -10 0 -5 -11 -10 -25 -10 -15 0
-25 -6 -25 -14 0 -8 -14 -20 -30 -28 -17 -7 -30 -19 -30 -25 0 -16 12 -17 28
-1 17 17 28 2 12 -17 -10 -12 -10 -15 1 -15 8 0 4 -7 -9 -16 -12 -8 -22 -21
-22 -29 0 -8 -14 -22 -30 -32 -27 -15 -37 -36 -17 -34 4 1 14 1 23 1 9 0 14 6
11 13 -3 7 6 13 24 14 29 2 29 2 12 -21 -10 -13 -34 -28 -53 -32 -42 -11 -48
-31 -19 -62 24 -26 20 -42 -4 -17 -17 17 -32 20 -22 5 3 -5 2 -10 -3 -10 -6 0
-12 7 -16 15 -7 18 -57 20 -74 3 -7 -7 -12 -20 -12 -30 0 -10 -6 -18 -14 -18
-8 0 -16 -10 -18 -22 -2 -17 -68 -69 -68 -53 0 2 -13 -1 -29 -6 -18 -7 -31
-19 -33 -31 -2 -12 -10 -24 -18 -26 -12 -4 -13 -2 -3 9 30 37 -46 66 -87 33
-12 -10 -19 -10 -34 1 -10 8 -15 19 -11 24 8 14 -24 28 -34 15 -12 -17 -58
-33 -68 -23 -5 5 -33 12 -62 16 -53 6 -91 31 -91 60 0 9 -8 12 -22 8 -13 -3
-29 -1 -37 4 -15 10 -7 31 13 31 8 0 19 7 26 15 7 8 27 15 44 15 20 0 35 7 43
19 8 13 19 17 36 14 17 -4 29 2 40 17 8 12 20 19 26 16 5 -4 12 -2 16 4 3 5
17 10 31 10 15 0 24 6 24 16 0 9 6 14 13 11 6 -2 11 -12 11 -21 -2 -17 8 -21
20 -9 7 7 25 10 88 13 9 1 19 9 21 18 4 15 5 15 6 0 1 -25 20 -22 30 5 5 12
18 30 29 40 13 12 19 28 17 45 -2 17 4 31 15 39 21 15 36 71 23 84 -6 6 -19 0
-35 -16 -18 -18 -28 -22 -33 -14 -4 6 -1 15 6 20 28 17 -12 9 -102 -21 -87
-30 -98 -31 -285 -34 -107 -1 -197 1 -200 6 -3 4 -17 8 -31 8 -18 0 -24 4 -19
15 3 8 -3 20 -13 27 -10 7 -19 16 -21 20 -1 4 -4 17 -7 28 -4 15 -11 18 -30
14 -19 -5 -25 -2 -30 14 -6 26 -29 36 -37 16 -3 -8 0 -14 6 -14 9 0 9 -3 0
-12 -9 -9 -20 -8 -47 5 -19 9 -35 20 -35 25 0 5 -6 9 -12 9 -7 0 -22 4 -32 9
-14 5 -17 4 -12 -4 12 -19 -36 -14 -63 7 -30 23 -20 41 25 41 40 0 44 11 9 30
-14 7 -25 17 -25 21 0 4 -11 2 -25 -4 -31 -15 -33 -27 -2 -19 20 5 21 4 8 -11
-17 -21 -51 -22 -51 -2 0 8 12 27 28 42 21 22 37 28 75 29 40 1 47 -2 47 -18
0 -18 1 -18 26 -2 19 13 28 14 33 5 4 -6 15 -9 24 -5 10 3 17 1 17 -5 0 -6 7
-8 16 -4 9 3 19 1 23 -5 5 -9 17 -9 42 -2 19 6 60 8 94 4 111 -12 120 -12 142
2 14 9 24 10 28 3 4 -5 15 -7 26 -4 11 4 33 8 49 10 16 2 42 13 57 24 15 11
68 29 118 41 96 24 132 38 153 57 7 7 26 13 41 13 16 0 42 3 58 6 19 4 35 1
44 -9 26 -25 57 -29 91 -12 30 15 34 14 59 -4 14 -11 43 -23 63 -27 26 -4 41
-14 48 -30 12 -25 34 -34 25 -10 -5 13 26 30 48 26 5 -1 18 -2 29 -3 10 -1 21
-9 24 -19 2 -10 13 -18 24 -18 14 0 18 5 14 15 -9 26 5 77 20 71 8 -3 14 -1
14 4 0 6 -9 10 -20 10 -28 0 -25 24 5 44 14 9 24 20 21 24 -7 13 13 52 29 52
10 0 15 10 15 30 0 25 -6 32 -35 44 -19 8 -35 20 -35 25 0 6 -7 11 -15 11 -8
0 -15 -4 -15 -10 0 -5 4 -10 9 -10 5 0 11 -9 14 -20 7 -26 -8 -26 -27 1 -8 12
-27 30 -43 40 -16 11 -32 34 -39 56 l-12 38 -7 -33 c-6 -26 -11 -31 -26 -27
-13 4 -19 1 -19 -9 0 -9 -4 -16 -10 -16 -5 0 -7 13 -4 29 6 30 -3 42 -40 47
-12 2 -37 5 -56 8 -19 3 -40 0 -47 -6 -7 -6 -13 -7 -13 -2 0 5 -5 2 -10 -6 -8
-13 -10 -12 -10 3 0 18 -25 24 -35 7 -10 -16 -25 -12 -25 8 0 9 -4 23 -8 29
-10 16 -92 32 -117 23 -14 -5 -23 -1 -30 14 -6 12 -19 20 -28 18 -19 -3 -21 6
-8 27 12 18 -17 60 -41 61 -10 0 -18 7 -18 15 0 20 -17 19 -28 -1 -5 -9 -15
-14 -21 -10 -6 4 -9 12 -6 17 4 5 0 9 -9 9 -8 0 -22 3 -32 7 -13 5 -16 3 -11
-10 3 -9 2 -17 -3 -17 -5 0 -12 9 -15 20 -8 27 -45 27 -45 0 0 -11 -11 -27
-25 -36 -15 -10 -25 -26 -25 -40 0 -15 -6 -24 -15 -24 -8 0 -15 7 -15 15 0 17
-35 21 -45 5 -4 -6 -7 -40 -7 -76 -1 -52 -5 -67 -19 -75 -11 -6 -16 -15 -12
-26 4 -11 2 -14 -8 -11 -10 4 -14 22 -13 72 1 48 -2 66 -10 63 -8 -3 -11 4 -8
24 2 16 8 29 13 29 5 0 6 6 3 14 -3 8 4 16 19 20 13 3 37 24 52 47 35 49 110
105 136 101 11 -2 32 6 48 17 42 30 75 32 79 4 5 -33 28 -48 55 -35 12 6 35
13 50 17 27 5 127 89 127 105 0 5 -8 6 -18 3 -10 -2 -24 2 -31 11 -7 8 -37 20
-67 27 -70 16 -117 2 -200 -57 -34 -24 -65 -44 -70 -44 -4 0 -20 -12 -35 -26
-31 -30 -52 -32 -133 -10 -53 13 -62 13 -88 0 -27 -14 -32 -14 -51 1 -12 8
-37 25 -55 37 -19 11 -38 31 -42 44 -6 15 -15 22 -24 18 -10 -4 -16 2 -18 18
-3 20 -8 22 -48 20 -25 -2 -57 -8 -72 -13 -19 -8 -32 -7 -48 1 -18 10 -24 9
-31 -1 -8 -12 -12 -11 -22 1 -6 9 -27 22 -45 29 -18 8 -31 20 -30 27 2 8 -8
20 -22 27 -61 30 -14 154 75 199 38 19 95 30 95 19 0 -5 15 -19 34 -30 18 -12
36 -31 39 -43 5 -18 8 -19 21 -9 13 11 17 9 27 -13 7 -14 16 -26 20 -26 13 0
49 -42 43 -52 -3 -4 -1 -8 5 -8 20 0 21 20 1 40 -15 15 -21 35 -23 80 -1 32
-6 62 -10 66 -4 4 -7 15 -7 24 0 10 -6 23 -14 29 -10 9 -12 21 -6 48 5 21 5
44 -1 54 -5 10 -9 27 -9 38 0 13 -7 21 -17 21 -16 1 -15 2 2 12 30 16 30 16
11 37 -30 33 -19 271 14 291 6 4 13 24 17 46 3 21 14 50 23 64 10 14 20 47 23
74 3 32 12 55 23 63 15 11 16 16 6 22 -18 11 48 66 92 76 17 5 38 10 46 12 49
12 114 14 140 3 27 -11 41 -30 23 -30 -5 0 -13 -12 -20 -26 -16 -34 1 -63 37
-62 14 1 33 -2 43 -6 13 -6 17 -3 17 13 0 14 6 21 19 21 10 0 21 6 24 14 8 19
75 30 93 15 11 -9 11 -15 3 -25 -14 -17 -3 -34 23 -34 20 0 20 -1 4 -19 -9
-10 -18 -31 -19 -47 -2 -24 2 -28 18 -26 55 9 265 12 265 3 0 -16 -28 -21
-117 -20 -47 0 -89 -3 -94 -8 -8 -8 61 -53 81 -53 5 0 21 -5 37 -12 15 -6 33
-12 38 -12 6 -1 26 -9 45 -18 59 -29 160 -49 184 -36 13 7 62 10 122 9 81 -2
104 1 117 13 9 9 31 19 49 23 36 6 92 32 86 39 -2 2 -31 -1 -63 -6 -45 -7 -61
-7 -67 3 -12 18 -4 32 20 35 22 3 29 16 14 26 -5 3 -30 -1 -56 -9 -59 -18
-207 -21 -264 -6 -45 13 -56 30 -19 32 83 3 133 13 176 35 51 25 91 74 91 111
0 11 8 27 18 35 43 38 122 28 122 -15 0 -34 -24 -62 -82 -96 -42 -25 -47 -30
-23 -25 17 4 57 22 91 40 71 39 78 41 69 15 -11 -34 32 -13 50 25 13 28 21 33
40 30 38 -7 60 3 74 35 7 17 21 33 30 37 18 6 36 31 36 49 0 7 8 18 17 25 9 7
20 25 23 40 6 23 3 28 -20 34 -18 5 -38 0 -63 -14 -42 -22 -97 -40 -72 -23 13
9 12 11 -3 11 -10 0 -15 5 -12 11 4 6 -1 16 -11 24 -14 10 -15 13 -4 12 28 -3
25 16 -3 24 -23 6 -27 5 -23 -9 10 -32 -7 -43 -38 -23 -18 12 -24 21 -17 26 7
4 18 1 26 -5 9 -7 15 -8 15 -2 0 11 -24 22 -50 22 -10 0 -21 6 -24 13 -3 6 -3
2 0 -10 3 -14 1 -23 -6 -23 -6 0 -9 4 -5 9 3 5 1 13 -5 16 -17 10 8 35 36 35
12 0 26 5 29 10 11 17 25 11 18 -7 -6 -15 -4 -16 9 -5 10 8 30 10 57 6 33 -5
42 -3 47 10 4 10 13 15 21 12 7 -3 16 1 19 9 4 8 11 12 17 8 6 -3 7 -1 3 5 -4
6 -13 9 -21 5 -9 -3 -15 1 -15 10 0 8 6 18 13 20 8 4 9 6 0 6 -6 1 -18 -6 -27
-14 -17 -17 -30 -20 -21 -5 3 6 1 10 -6 10 -9 0 -9 3 0 14 20 23 31 74 18 79
-9 3 -8 8 1 20 30 36 -73 93 -117 65 -15 -9 -24 -8 -45 6 -28 18 -54 13 -38
-7 5 -7 12 -29 15 -49 4 -27 2 -38 -10 -42 -28 -11 -63 -6 -81 12 -27 27 -73
34 -107 16 -30 -15 -61 -12 -50 6 3 5 16 10 27 10 12 0 19 3 15 6 -15 15 -162
8 -239 -11 -23 -6 -26 -4 -21 14 6 24 -4 27 -32 7 -26 -17 -92 -29 -97 -17 -1
5 -19 12 -39 15 -28 4 -40 1 -54 -14 -10 -11 -15 -26 -12 -34 9 -23 -14 -32
-29 -11 -8 10 -29 19 -52 21 -31 3 -44 -2 -70 -25 -17 -16 -34 -25 -38 -20 -3
5 -9 7 -13 5 -4 -3 -17 4 -29 14 -12 11 -28 20 -36 20 -8 0 -17 6 -20 13 -3 6
-3 1 0 -13 4 -14 12 -28 18 -32 12 -9 -9 -28 -32 -28 -7 0 -18 -13 -23 -30 -8
-22 -17 -30 -34 -30 -23 0 -40 24 -29 41 3 5 0 10 -5 10 -20 3 -26 5 -58 22
-17 9 -39 14 -47 11 -9 -3 -24 -3 -33 1 -17 6 -17 7 0 16 24 14 21 32 -7 45
-30 14 -76 7 -76 -12 0 -8 -4 -14 -9 -14 -5 0 -8 6 -7 13 2 22 -45 25 -66 4
-17 -17 -140 -16 -146 1 -6 19 -52 14 -59 -5 -13 -34 -43 -44 -43 -14 0 22
-33 37 -52 25 -7 -5 -30 -9 -52 -9 -24 -1 -43 -8 -51 -18 -7 -10 -19 -15 -29
-11 -18 7 -21 20 -6 29 8 5 7 11 -1 21 -6 7 -16 11 -21 8 -5 -4 -20 -1 -33 6
-20 11 -26 10 -40 -4 -21 -20 -79 -15 -83 8 -2 9 -9 16 -15 16 -21 1 -57 38
-57 59 0 12 -6 21 -12 21 -7 1 -2 7 11 14 15 8 20 16 12 20 -6 4 -11 14 -11
23 0 9 -16 35 -35 58 -19 23 -31 45 -28 49 4 3 -1 6 -10 6 -8 0 -17 -6 -19
-12 -3 -9 -9 -8 -21 4 -25 25 -21 48 8 48 20 0 24 4 22 22 -2 12 -9 24 -15 26
-26 8 1 22 43 22 24 0 47 5 50 11 11 17 3 18 -58 10 -64 -9 -75 7 -16 23 19 5
36 12 39 16 3 3 23 10 45 15 26 7 41 16 43 28 3 13 -2 17 -15 15 -12 -2 -19 4
-21 20 -3 17 2 22 20 22 18 0 20 2 8 10 -12 8 -12 10 3 16 9 3 27 4 40 0 28
-7 71 20 63 40 -3 8 0 14 6 14 7 0 4 6 -7 14 -17 12 -16 13 10 20 20 5 25 10
17 18 -6 6 -8 16 -5 24 7 20 -29 50 -59 49 -16 -1 -28 3 -28 7 0 4 -7 8 -16 8
-14 0 -15 7 -10 39 3 23 2 42 -4 46 -5 3 -10 15 -10 26 0 16 -6 20 -27 17 -16
-2 -27 -8 -25 -15 1 -7 -7 -13 -18 -13 -11 0 -19 3 -18 8 0 4 -2 15 -6 24 -8
18 9 58 24 58 5 0 21 -11 36 -25 34 -31 53 -21 23 11 l-23 25 22 6 c12 3 22 9
22 14 0 5 7 9 16 9 11 0 14 -6 9 -20 -6 -20 5 -27 19 -12 4 4 15 7 24 8 44 3
52 5 52 12 0 4 -19 6 -41 4 -46 -5 -47 12 -3 28 13 5 23 13 22 17 0 5 4 21 10
36 7 16 10 32 7 37 -3 4 2 10 10 14 8 3 12 12 9 21 -4 9 1 18 12 22 25 9 49
33 34 33 -6 0 -8 5 -5 10 5 8 11 7 20 0 8 -7 20 -8 26 -4 8 4 9 3 5 -4 -8 -14
3 -15 22 -4 8 5 10 16 6 27 -6 15 -3 17 13 13 13 -3 24 1 32 14 7 11 17 18 24
15 6 -2 19 6 29 17 13 17 19 19 29 9 11 -11 10 -13 0 -13 -8 0 -11 -6 -7 -16
4 -9 1 -23 -5 -30 -9 -11 -7 -14 10 -14 14 0 25 9 31 25 12 31 36 42 60 27 23
-14 37 -3 45 38 4 24 14 39 31 47 15 7 24 8 24 1 0 -6 9 -7 23 -4 12 4 29 9
37 10 38 8 60 19 60 31 0 15 58 41 83 37 9 -2 17 2 17 7 0 6 7 11 16 11 10 0
14 6 10 15 -4 11 2 15 20 15 14 0 39 9 55 21 16 11 36 18 44 15 8 -3 15 -1 15
4 0 6 11 10 25 10 16 0 25 -6 25 -15 0 -14 3 -14 28 -1 24 12 32 12 62 0 27
-12 40 -13 60 -4 17 8 26 8 28 1 6 -19 30 -12 38 11 6 20 8 20 19 5 15 -20 31
-22 38 -4 3 9 23 14 51 15 42 0 46 -2 41 -19 -9 -27 31 -26 47 1 15 24 38 26
38 4 0 -12 7 -14 30 -9 24 5 29 4 24 -8 -7 -19 61 -33 81 -17 19 16 120 -12
143 -40 13 -16 29 -21 62 -22 26 0 52 -7 63 -16 13 -12 20 -13 29 -4 16 16 28
15 28 -1 0 -8 17 -19 37 -25 31 -10 38 -9 49 6 13 16 16 13 18 -18 1 -9 13
-16 29 -18 15 -2 32 -12 37 -22 5 -10 19 -22 31 -25 11 -4 18 -13 16 -20 -3
-7 5 -17 19 -24 13 -6 24 -19 24 -30 0 -11 7 -24 16 -29 11 -6 15 -17 11 -31
-3 -11 -1 -19 3 -16 5 3 11 -4 15 -15 3 -11 11 -20 16 -20 5 0 9 -6 9 -12 0
-7 7 -26 16 -43 12 -24 13 -33 2 -53 -11 -22 -10 -26 13 -46 32 -26 41 -50 26
-65 -8 -8 -8 -11 2 -11 7 0 9 -4 6 -10 -3 -5 -2 -10 3 -10 5 0 17 -21 25 -47
17 -50 9 -77 -19 -66 -8 3 -14 0 -14 -7 0 -6 5 -8 10 -5 6 3 10 -1 10 -9 0 -8
-5 -18 -10 -21 -8 -5 -7 -11 1 -21 9 -11 7 -14 -15 -14 -32 0 -34 -18 -3 -29
17 -7 24 -5 31 10 11 23 25 24 41 3 10 -14 13 -14 26 -2 8 8 22 17 31 20 14 6
15 3 7 -22 -8 -20 -19 -31 -41 -35 -29 -7 -29 -7 -10 -21 13 -9 18 -21 15 -34
-3 -12 0 -20 7 -20 7 0 9 -8 5 -19 -4 -13 2 -26 15 -39 19 -17 19 -20 4 -26
-12 -4 -13 -10 -6 -19 6 -7 12 -26 15 -42 3 -23 10 -32 36 -39 34 -10 47 -37
39 -81 -3 -14 0 -26 8 -29 7 -3 18 -32 25 -65 9 -48 14 -58 28 -53 14 5 14 4
-1 -12 -22 -21 -22 -20 -2 -86 14 -48 18 -69 23 -134 1 -22 13 -14 19 12 2 9
5 42 7 72 5 69 20 166 41 250 9 36 18 99 20 140 4 85 22 207 34 231 5 9 4 21
-1 26 -6 6 -5 14 5 22 11 9 25 8 68 -7 160 -59 199 -70 258 -75 47 -5 60 -4
48 4 -31 18 -22 39 16 39 19 0 38 -5 41 -10 4 -6 16 -8 28 -4 12 4 35 7 51 6
16 0 113 18 215 40 102 23 206 44 231 48 25 5 83 17 130 28 147 35 273 62 325
69 28 3 73 17 100 30 28 12 56 23 63 23 7 0 33 9 58 20 24 12 49 18 54 15 5
-3 11 -1 15 5 4 6 11 8 16 4 6 -3 39 -1 75 6 52 10 64 16 64 31 0 22 21 25 49
7 15 -9 28 -9 59 0 33 10 39 16 35 32 -6 23 24 29 33 7 3 -9 16 -12 34 -9 26
4 30 8 30 37 0 29 -4 34 -27 37 -39 4 -42 28 -4 28 27 0 31 3 31 28 0 26 -4
28 -60 39 -50 9 -66 9 -88 -3 -15 -8 -36 -14 -47 -14 -12 0 -26 -5 -31 -10 -7
-7 -19 -8 -37 -1 -38 15 -34 31 7 31 31 0 55 14 44 25 -2 2 -58 16 -123 30
-170 36 -214 52 -220 78 -23 113 -28 168 -15 195 15 31 26 174 22 282 -4 120
4 158 39 175 35 19 38 35 5 35 -14 0 -33 11 -44 25 -11 14 -23 25 -26 25 -3 0
-6 -22 -6 -48 0 -58 -18 -102 -42 -102 -12 0 -18 -8 -18 -24 0 -14 -11 -37
-24 -51 -14 -15 -27 -39 -31 -53 -7 -32 -41 -79 -50 -70 -10 9 22 109 42 130
14 16 15 23 5 38 -14 23 -6 50 16 50 13 0 13 2 -1 18 -23 25 -21 39 3 47 35
11 100 86 100 115 0 39 -26 68 -73 80 -23 6 -57 17 -76 26 -33 15 -121 11
-121 -6 0 -14 -53 -31 -64 -20 -7 7 -1 14 20 22 l31 11 -14 41 c-11 32 -12 49
-3 86 15 59 105 229 153 287 20 25 37 53 37 62 0 9 11 40 25 69 19 40 29 52
47 52 13 0 33 3 45 6 43 12 79 -54 92 -171 l6 -50 57 3 c89 6 129 -15 71 -36
-24 -9 -20 -11 32 -11 33 -1 117 4 188 11 l127 12 0 52 0 53 -71 -6 c-39 -3
-136 0 -215 7 -120 11 -142 15 -132 27 6 8 10 42 9 82 -3 96 -12 92 294 142
118 19 115 18 115 52 0 24 -3 28 -12 19 -7 -7 -37 -12 -67 -12 -30 0 -52 3
-49 6 3 3 24 5 47 6 23 0 41 4 41 9 0 5 9 9 20 9 27 0 25 18 -2 23 l-23 4 23
2 c21 1 22 5 22 80 l0 79 -42 -12 c-39 -10 -40 -11 -15 -14 45 -5 31 -19 -35
-31 -35 -7 -109 -22 -166 -34 -108 -22 -130 -18 -118 20 7 22 45 43 76 43 11
0 20 4 20 9 0 5 -19 7 -41 4 -40 -6 -42 -5 -36 18 8 33 -5 51 -34 47 -22 -3
-25 -9 -31 -73 -4 -44 -3 -74 4 -82 6 -7 8 -20 4 -28 -3 -10 3 -17 20 -21 24
-6 145 3 171 13 7 3 13 1 13 -4 0 -14 -132 -37 -173 -30 -19 3 -39 1 -45 -5
-11 -11 -55 14 -81 46 -6 7 -21 12 -31 9 -11 -3 -20 -1 -20 5 0 5 -14 15 -30
22 -34 14 -52 5 -75 -39 -14 -28 -68 -65 -79 -54 -3 3 -6 1 -6 -5 0 -7 -4 -12
-9 -12 -4 0 -6 11 -3 25 2 14 8 25 13 25 11 0 36 59 43 100 2 17 9 36 14 43
14 16 32 87 23 87 -4 0 -17 -9 -29 -20 -28 -27 -35 -25 -28 6 5 19 2 30 -11
40 -17 12 -14 16 32 59 28 25 62 52 76 60 35 19 44 7 52 -64 4 -29 12 -59 18
-67 18 -21 60 -18 66 6 7 27 59 35 105 16 35 -15 38 -15 51 4 14 20 22 22 202
55 50 9 100 19 113 21 12 2 22 8 22 13 0 5 -19 4 -42 0 -24 -5 -92 -16 -153
-24 -60 -9 -122 -20 -137 -26 -15 -6 -41 -8 -58 -4 -26 6 -30 10 -24 28 10 34
17 37 83 48 33 5 89 14 124 20 34 5 81 13 105 16 23 3 42 10 42 14 0 5 -4 9
-8 9 -16 0 -197 -29 -212 -33 -8 -3 -34 -8 -57 -11 l-41 -6 1 35 c1 39 3 40
88 50 98 11 124 26 34 18 -98 -7 -84 -8 -176 12 -73 16 -79 15 -175 -5 -54
-12 -112 -24 -129 -27 -16 -3 -41 -16 -55 -29 -31 -29 -77 -47 -85 -34 -4 6
-1 10 4 10 6 0 11 5 11 11 0 8 -22 9 -72 4 -88 -9 -86 2 3 16 96 15 112 45 22
40 -26 -1 -44 1 -40 5 7 7 31 12 75 13 12 1 22 6 22 12 0 8 -23 9 -72 5 l-73
-5 74 17 c86 20 106 42 39 42 -23 0 -60 -4 -80 -9 -21 -5 -38 -5 -38 -1 0 5
18 11 40 14 22 3 58 9 80 12 22 3 42 10 46 15 6 11 -43 11 -109 0 -26 -4 -50
-5 -52 -1 -3 4 36 13 85 21 59 8 91 18 95 27 3 8 4 16 3 17 -4 3 -137 -13
-166 -20 -14 -3 -21 -2 -18 4 6 8 85 25 175 36 33 4 69 25 43 25 -7 0 -12 5
-12 10 0 6 9 10 19 10 26 0 34 15 18 29 -9 7 -24 8 -48 1 -18 -6 -47 -10 -64
-9 -27 0 -28 1 -9 9 12 5 42 12 68 15 25 4 46 12 46 17 0 10 -79 6 -178 -10
-29 -5 -55 -6 -57 -2 -3 4 21 10 53 14 31 4 85 11 119 17 59 10 61 12 65 45 2
18 -1 35 -7 37 -13 5 -13 5 72 50 58 30 85 38 138 41 61 3 97 17 83 31 -3 4
-59 1 -123 -5 -119 -11 -168 -7 -78 6 71 10 174 32 180 38 3 3 -283 5 -636 6
l-641 0 0 -34 c0 -30 -4 -35 -27 -40 -16 -3 -37 -5 -48 -3 -11 1 -20 -2 -20
-8 0 -5 4 -100 8 -210 4 -110 10 -265 13 -345 26 -705 14 -647 128 -635 39 4
76 11 81 15 6 5 10 25 9 45 -2 26 3 38 17 46 25 13 24 24 -3 37 -18 8 -19 11
-5 11 21 1 23 21 2 21 -8 0 -15 5 -15 10 0 16 37 11 44 -6 3 -9 6 -46 6 -83
l0 -68 31 5 c22 3 30 1 25 -7 -4 -6 -15 -11 -25 -11 -27 0 -111 -31 -111 -40
0 -5 6 -13 13 -17 7 -4 19 -23 26 -41 11 -25 11 -35 1 -47 -10 -12 -10 -21 0
-45 7 -16 9 -38 5 -47 -4 -10 -8 -54 -10 -98 -1 -47 -7 -81 -14 -83 -6 -2 -8
-14 -5 -28 3 -13 -1 -42 -10 -64 -12 -29 -14 -58 -9 -118 4 -55 2 -85 -7 -103
-7 -13 -14 -55 -16 -94 -2 -75 -9 -100 -31 -126 -8 -9 -13 -20 -12 -25 1 -5
-1 -17 -6 -27 -4 -9 -5 -31 -3 -47 3 -16 0 -31 -5 -33 -5 -1 -11 -25 -13 -52
-8 -83 -11 -99 -22 -125 -6 -14 -16 -46 -23 -72 -8 -27 -16 -48 -19 -48 -4 0
-12 -16 -20 -35 -18 -46 -27 -30 -35 65 -14 152 -13 150 -38 126 -11 -11 -15
-37 -15 -91 0 -41 -3 -79 -6 -84 -3 -5 1 -14 9 -21 11 -9 12 -16 4 -26 -6 -7
-11 -53 -12 -101 -2 -84 -3 -88 -25 -91 -20 -3 -23 0 -17 17 4 13 2 21 -5 21
-6 0 -10 8 -7 18 2 9 -3 30 -10 45 -12 24 -17 26 -30 16 -12 -11 -17 -10 -25
5 -7 13 -17 16 -35 11 -31 -7 -21 12 13 25 29 11 31 34 4 57 -11 10 -20 23
-20 30 0 7 -8 13 -19 13 -16 0 -19 9 -19 76 -1 42 -4 79 -7 82 -3 4 -14 1 -24
-5 -27 -17 -33 -5 -13 24 15 25 15 26 -11 47 -20 17 -24 25 -16 33 9 9 8 21
-5 47 -9 20 -22 36 -28 36 -6 0 3 14 20 31 17 17 28 37 25 45 -3 8 4 17 18 23
13 5 32 17 41 28 17 18 17 22 0 68 -16 44 -21 50 -50 53 -32 3 -46 22 -17 22
23 0 15 58 -12 99 -22 32 -22 35 -6 61 19 33 12 60 -17 60 -17 0 -20 4 -15 22
6 17 4 20 -9 15 -9 -4 -16 -1 -16 4 0 7 -11 9 -25 7 -14 -3 -25 -2 -25 2 0 5
-9 6 -20 3 -23 -6 -28 15 -5 23 24 10 17 25 -9 18 -19 -4 -25 -1 -30 21 -4 14
-4 30 -1 35 6 10 -12 57 -31 80 -7 8 -14 26 -16 40 -2 21 -9 25 -42 28 -35 3
-37 4 -20 18 18 14 17 15 -8 10 -14 -3 -34 -9 -45 -12 -13 -4 -12 0 7 16 l25
22 -42 -7 c-29 -4 -43 -3 -43 4 0 6 7 11 15 11 16 0 19 9 9 34 -3 8 -11 13
-18 10 -18 -7 -51 45 -37 59 7 7 5 14 -7 24 -16 12 -16 14 0 26 25 19 7 41
-28 34 -18 -3 -37 0 -48 9 -24 17 -96 19 -96 3 0 -15 -61 -3 -71 13 -5 8 -14
4 -27 -13 l-20 -24 21 -9 c20 -9 19 -10 -12 -14 -43 -4 -55 7 -42 41 8 21 7
25 -4 20 -8 -3 -15 0 -15 6 0 6 -7 11 -15 11 -8 0 -15 7 -15 15 0 20 -10 19
-25 -2 -7 -9 -17 -13 -23 -9 -17 10 -15 26 3 26 8 0 15 7 15 15 0 8 -5 15 -10
15 -6 0 -8 10 -4 24 5 19 1 25 -22 30 -15 4 -32 2 -37 -3 -16 -16 -30 -13 -24
3 7 17 -33 56 -57 56 -10 0 -14 5 -10 12 5 8 -3 9 -29 5 -28 -4 -35 -3 -31 8
3 8 2 20 -2 26 -15 25 -3 113 18 136 11 12 17 27 13 34 -6 9 1 10 29 5 29 -6
36 -4 36 9 0 20 17 19 29 -2 8 -15 14 -16 43 -6 18 6 50 11 72 12 36 0 83 7
211 31 28 5 70 12 95 15 25 3 68 10 95 15 28 5 71 9 96 9 26 1 51 7 57 14 6 7
6 36 1 78 -4 36 -10 111 -14 165 -9 175 -20 235 -38 229 -13 -6 -32 32 -41 84
-3 19 -13 39 -22 45 -9 7 -17 29 -18 52 -5 79 -1 74 -61 74 -30 0 -55 -4 -55
-9 0 -5 4 -11 9 -13 4 -1 0 -12 -10 -22 -19 -19 -19 -19 -19 12 0 31 -2 32
-40 32 -39 0 -40 0 -40 -37 -1 -55 -19 -73 -73 -73 -25 0 -58 -5 -74 -11 -15
-6 -53 -15 -83 -20 -66 -12 -180 -48 -180 -57 0 -4 16 -20 35 -37 43 -38 50
-69 15 -73 -49 -6 -126 -35 -170 -65 -29 -19 -59 -30 -83 -31 -30 0 -39 -5
-43 -22 -8 -29 -45 -63 -80 -73 -34 -9 -42 -27 -15 -36 30 -9 26 -28 -11 -48
-32 -17 -33 -19 -30 -76 3 -46 9 -64 26 -81 l23 -21 -25 -54 c-28 -60 -62 -77
-62 -31 0 13 -7 27 -16 30 -15 6 -15 8 -2 24 23 25 32 62 17 62 -8 0 -5 6 5
13 16 11 17 22 11 65 l-7 52 -81 -6 c-98 -8 -127 -17 -128 -41 0 -10 -2 -38
-3 -62 -2 -32 -8 -48 -22 -55 -10 -6 -23 -17 -27 -23 -4 -7 -17 -13 -27 -13
-18 0 -20 -6 -17 -67 2 -64 3 -67 31 -74 16 -5 37 -4 46 1 10 6 21 5 28 -1 7
-5 10 -6 7 -2 -3 3 12 12 32 20 42 14 60 17 50 6 -4 -3 -2 -12 5 -20 6 -7 8
-17 4 -20 -4 -4 -11 -1 -16 7 -9 15 -11 13 -14 -12 -1 -14 -47 -22 -169 -32
-80 -6 -89 -3 -59 20 16 12 15 13 -6 14 -13 0 -30 7 -38 15 -14 13 -19 13 -45
0 -28 -15 -31 -14 -52 7 -22 23 -48 71 -62 116 -4 14 -13 21 -23 20 -13 -2
-18 6 -20 35 -4 42 -1 42 -105 22 -99 -19 -143 -19 -150 -1 -3 8 -9 41 -12 73
l-7 58 45 28 c24 15 49 27 55 27 6 0 23 11 39 24 15 13 47 27 71 31 40 6 47
13 43 43 -1 6 3 12 8 12 13 0 11 69 -2 77 -5 3 -14 0 -20 -6 -18 -18 -26 -13
-29 21 -4 42 -38 54 -38 13 0 -16 -4 -24 -11 -20 -6 4 -8 13 -5 21 7 18 -30
37 -59 30 -22 -6 -23 -9 -18 -66 4 -41 2 -60 -5 -60 -12 0 -19 27 -20 74 0 16
-5 32 -12 36 -19 12 -62 -2 -68 -22 -3 -14 -12 -18 -35 -16 -50 5 -44 26 15
53 76 34 160 46 222 30 72 -19 80 -13 72 54 -4 36 -14 63 -26 76 -20 20 -20
20 -46 -9 -19 -20 -33 -26 -48 -22 -11 3 -47 6 -78 6 -66 0 -70 7 -38 65 11
20 20 44 20 55 0 11 7 20 15 20 8 0 15 8 15 19 0 16 -9 18 -61 19 -58 1 -61 0
-55 -21 3 -12 6 -28 6 -34 0 -7 5 -13 10 -13 6 0 10 7 8 16 -2 10 3 19 11 22
11 4 13 -3 8 -34 -4 -21 -11 -40 -17 -42 -5 -2 -10 -15 -10 -28 0 -13 -6 -33
-12 -44 -10 -15 -10 -27 -1 -51 14 -37 10 -49 -18 -49 -10 0 -19 -4 -19 -8 0
-5 -10 -21 -23 -35 -16 -19 -31 -26 -52 -25 -17 1 -76 -2 -131 -6 l-102 -8
-12 37 c-7 20 -9 46 -6 58 4 18 -14 169 -30 245 -4 22 -7 22 -147 22 -101 0
-147 -4 -156 -12 -11 -10 -13 -10 -7 0 6 9 -27 12 -150 12 l-156 0 6 -22 c3
-13 13 -66 22 -118 8 -52 24 -140 35 -194 10 -54 19 -108 18 -120 -1 -46 -18
20 -44 174 -14 85 -32 179 -40 209 -8 30 -12 58 -9 63 3 4 -31 8 -75 8 l-80 0
4 -27z m3023 -260 c-3 -19 3 -20 90 -7 36 5 46 3 58 -14 7 -11 25 -23 39 -26
26 -7 34 -30 14 -41 -6 -4 -8 -13 -5 -20 6 -16 -29 -30 -114 -45 -36 -6 -101
-17 -145 -24 -44 -8 -138 -21 -210 -31 -71 -9 -169 -23 -218 -31 -48 -8 -97
-14 -108 -14 -21 0 -69 42 -69 60 0 23 79 34 109 16 5 -4 13 -1 17 5 4 8 3 9
-4 5 -7 -4 -12 -4 -12 -1 0 28 108 65 192 65 50 0 63 4 85 26 23 23 27 24 35
10 18 -32 95 -13 123 31 9 13 25 23 39 23 13 0 26 7 30 15 8 22 58 20 54 -2z
m-1933 -440 c4 -32 11 -83 16 -114 12 -74 9 -121 -11 -136 -19 -16 -40 -16
-40 -2 0 6 -11 24 -25 41 -14 16 -25 38 -25 49 0 11 -13 32 -30 46 -41 34 -40
55 3 51 l32 -3 2 54 c2 57 12 71 50 71 19 0 22 -7 28 -57z m3839 31 c3 -9 6
-26 6 -38 0 -12 5 -27 12 -34 8 -8 8 -15 -1 -26 -7 -8 -10 -19 -7 -25 7 -10
-15 -16 -119 -31 -95 -13 -92 -14 -93 20 0 19 4 30 11 28 13 -2 102 10 130 18
9 3 17 12 17 19 0 11 -12 13 -52 8 -29 -3 -50 -2 -46 2 7 7 27 11 76 14 12 0
22 7 22 14 0 11 -12 12 -52 6 -29 -4 -65 -10 -80 -14 -18 -5 -28 -3 -28 4 0 6
10 13 23 15 12 3 54 12 92 19 39 8 73 15 76 16 4 0 10 -6 13 -15z m-633 -257
c-6 -6 -11 -21 -11 -33 0 -32 -10 -54 -25 -54 -7 0 -18 -6 -24 -14 -12 -14
-51 -14 -84 -1 -12 5 -16 14 -12 26 4 12 1 19 -7 19 -8 1 -5 7 7 16 19 15 19
16 2 29 -17 12 -15 14 18 25 20 7 48 10 62 7 14 -2 37 2 52 9 23 12 26 12 29
-2 2 -9 -1 -21 -7 -27z m190 -131 c-10 -11 -9 -21 3 -44 13 -26 13 -30 -1 -45
-14 -14 -14 -20 -3 -48 12 -28 11 -33 -3 -44 -12 -9 -17 -27 -17 -63 0 -58
-13 -73 -32 -40 -12 19 -16 88 -8 123 1 6 2 47 1 92 l-2 82 33 3 c41 4 44 2
29 -16z m289 -100 c7 -9 8 -16 2 -16 -9 0 -5 -128 4 -139 2 -2 19 0 39 3 l35
7 -16 31 c-16 31 -16 33 6 50 25 20 80 24 98 6 17 -17 15 -43 -4 -58 -13 -12
-11 -15 17 -27 26 -11 30 -17 25 -36 -3 -12 -6 -31 -6 -43 0 -11 -18 -47 -39
-80 -22 -32 -54 -102 -71 -154 -17 -52 -36 -101 -42 -108 -6 -7 -13 -25 -14
-40 -2 -15 -13 -46 -25 -69 -22 -40 -22 -43 -6 -61 23 -25 22 -46 0 -37 -10 3
-30 9 -46 12 -15 3 -31 11 -34 17 -9 14 -4 335 7 490 5 70 14 122 21 126 7 5
9 19 4 41 -10 40 -13 101 -8 112 5 9 35 -7 53 -27z m-361 -350 c23 -13 24 -17
27 -159 4 -150 -5 -189 -27 -117 -7 22 -16 40 -20 40 -4 0 -12 13 -17 29 -8
22 -7 34 4 50 10 14 12 26 6 37 -6 10 -6 33 0 57 6 26 5 44 -2 51 -25 25 -8
33 29 12z m511 -1152 c0 -8 -3 -14 -8 -14 -4 0 -13 -12 -19 -28 -10 -21 -23
-30 -60 -39 -55 -12 -79 -4 -93 33 -15 37 -12 62 6 66 9 2 52 2 95 0 60 -3 79
-7 79 -18z m-4170 -1269 c0 -9 9 -15 24 -15 20 0 24 -4 21 -20 -2 -11 0 -18 5
-15 15 9 55 -15 72 -45 l17 -30 -35 -16 c-19 -9 -34 -23 -34 -30 0 -8 -4 -14
-10 -14 -5 0 -10 5 -10 10 0 6 -4 10 -10 10 -5 0 -10 -8 -10 -17 0 -12 -3 -14
-8 -7 -4 7 -18 14 -31 15 -31 5 -58 78 -41 110 10 17 8 21 -9 26 -24 6 -29 23
-7 23 8 0 16 7 20 15 3 8 15 15 26 15 11 0 20 -7 20 -15z m-391 -79 c9 13 153
10 178 -4 12 -6 23 -8 25 -3 2 5 13 5 26 0 19 -7 22 -14 16 -31 -4 -13 -12
-26 -18 -30 -7 -5 -4 -8 7 -8 27 0 20 -24 -10 -37 -27 -12 -59 -11 -175 3 -40
5 -62 3 -72 -5 -8 -7 -24 -10 -34 -7 -11 4 -39 2 -63 -3 -27 -6 -48 -6 -53 -1
-12 12 40 33 76 31 43 -2 41 15 -5 33 -33 13 -39 19 -27 26 8 5 22 10 31 10 9
0 24 9 34 20 14 15 22 17 38 9 11 -6 22 -7 26 -3z m-367 -150 c-2 -15 2 -34 9
-42 9 -11 8 -14 -5 -14 -9 0 -16 -7 -16 -15 0 -10 10 -15 28 -15 32 0 64 -19
45 -27 -7 -2 -13 -20 -13 -39 0 -29 3 -34 25 -34 31 0 23 -28 -11 -36 -13 -3
-24 -13 -24 -21 0 -8 -9 -17 -20 -20 -23 -6 -27 -33 -5 -33 8 0 15 6 15 13 0
7 9 18 19 24 15 10 22 9 31 -2 9 -11 7 -12 -8 -8 -16 4 -21 -2 -26 -33 -7 -32
-4 -40 18 -59 22 -19 23 -24 12 -46 -9 -17 -20 -23 -39 -22 -15 1 -27 -2 -27
-7 0 -5 -9 -11 -20 -15 -16 -5 -18 -9 -8 -25 10 -15 9 -23 -7 -40 -13 -14 -19
-38 -21 -78 -4 -88 -12 -171 -19 -182 -3 -5 -1 -19 5 -30 7 -12 7 -27 2 -37
-14 -28 -25 -81 -12 -63 8 13 10 13 10 -2 0 -10 -10 -23 -22 -29 l-21 -11 8
208 c8 222 8 220 20 362 4 51 8 148 10 215 2 124 6 147 34 179 21 25 37 17 33
-16z m3031 -286 c36 -13 57 -27 57 -37 0 -13 -10 -14 -67 -8 -38 4 -72 9 -77
12 -22 14 -89 17 -223 10 -57 -3 -103 -4 -103 -2 0 2 6 16 12 31 l13 27 166
-6 c134 -5 176 -10 222 -27z m-2415 -310 c0 -17 10 -43 21 -59 12 -16 21 -34
21 -39 0 -5 11 -17 25 -26 14 -9 25 -20 25 -25 0 -13 -106 6 -136 25 -52 33
-104 77 -104 88 0 12 42 35 95 54 47 16 52 14 53 -18z m415 16 c18 -8 54 -24
82 -36 38 -16 46 -23 35 -30 -8 -5 -29 -10 -46 -10 -17 0 -61 -13 -97 -30 -77
-35 -97 -38 -75 -12 20 24 38 69 38 96 0 39 14 44 63 22z m82 -266 c-3 -5 -1
-10 4 -10 18 0 12 -25 -9 -38 -12 -7 -18 -17 -15 -22 9 -15 -21 -41 -39 -34
-11 4 -16 1 -16 -10 0 -9 -4 -16 -10 -16 -5 0 -10 -7 -10 -15 0 -8 -4 -15 -9
-15 -5 0 -17 -3 -27 -7 -13 -5 -15 -3 -9 7 6 10 4 12 -9 7 -10 -4 -31 -7 -48
-7 -22 0 -42 -12 -79 -47 -27 -27 -49 -53 -49 -59 0 -14 51 -29 59 -17 12 17
63 37 87 35 21 -2 24 1 19 18 -6 20 6 25 54 22 7 0 22 8 33 18 10 9 40 28 66
41 26 13 52 30 58 38 6 8 16 11 23 7 9 -6 8 -13 -3 -31 -14 -21 -14 -24 0 -29
13 -5 11 -13 -10 -49 -14 -24 -27 -63 -29 -87 -2 -25 -13 -61 -25 -80 -12 -19
-20 -41 -17 -47 3 -7 8 -20 11 -28 3 -8 1 -15 -6 -15 -7 0 -9 -8 -5 -19 4 -14
0 -21 -16 -26 -17 -6 -19 -9 -8 -16 8 -5 9 -9 3 -9 -16 0 -34 -45 -27 -68 4
-16 -2 -22 -30 -31 -46 -16 -93 -56 -77 -66 18 -11 -8 -25 -48 -25 -25 0 -35
-5 -42 -24 -5 -13 -18 -27 -29 -31 -12 -3 -21 -12 -21 -18 0 -12 -76 -14 -87
-3 -9 9 8 26 27 26 10 0 21 4 24 9 8 12 -23 23 -45 16 -14 -5 -19 -1 -19 15 0
11 -7 23 -15 26 -8 4 -15 14 -15 23 0 9 -12 29 -26 45 -22 25 -29 28 -45 18
-17 -11 -19 -9 -19 23 0 24 5 35 15 35 27 0 17 46 -15 73 -16 14 -30 30 -30
35 0 5 -7 15 -15 22 -19 16 -10 30 18 30 21 1 21 1 4 14 -14 11 -15 15 -5 19
7 3 -7 6 -33 6 -48 1 -71 15 -62 38 4 11 0 13 -19 8 -18 -5 -27 -2 -32 10 -5
13 -2 15 14 10 15 -5 18 -3 14 9 -4 11 0 13 15 9 12 -3 21 -14 22 -27 1 -16 2
-17 6 -4 5 20 -15 61 -26 53 -5 -3 -11 2 -15 10 -3 8 -12 15 -19 15 -8 0 -29
7 -46 16 -21 10 -45 14 -67 11 -41 -7 -42 0 -5 36 25 24 31 26 59 16 17 -6 37
-9 44 -7 7 3 18 -1 25 -7 17 -17 93 -28 108 -15 14 12 45 3 45 -12 0 -14 93
-3 98 11 4 13 42 15 42 2 0 -4 11 -6 25 -3 14 2 25 11 25 18 0 8 10 19 23 24
12 5 18 9 12 10 -22 1 22 20 48 20 15 0 27 5 27 10 0 6 6 10 13 10 8 0 24 11
37 25 13 14 30 25 38 25 8 0 27 10 44 21 22 16 32 19 41 10 17 -17 37 -13 37
9 0 11 5 20 11 20 5 0 7 -4 4 -10z m1079 -1277 c3 -7 12 -13 20 -13 8 0 16 -5
18 -12 7 -21 50 -19 74 3 14 13 24 17 29 10 4 -7 12 -8 23 -2 20 11 52 -3 52
-23 0 -8 6 -16 14 -19 21 -8 27 -47 8 -54 -9 -4 -20 -11 -23 -16 -4 -5 -31
-11 -62 -13 -40 -3 -58 0 -67 11 -14 17 -55 21 -45 5 4 -6 24 -19 46 -30 21
-11 39 -26 39 -33 0 -27 -73 -45 -189 -46 -132 -1 -180 -8 -188 -27 -3 -8 -11
-14 -19 -14 -8 0 -14 -7 -14 -16 0 -10 6 -14 15 -10 10 4 15 -1 15 -15 0 -11
-7 -22 -16 -26 -18 -7 -36 15 -29 35 8 21 -21 79 -42 86 -11 4 -26 18 -33 31
-10 19 -22 25 -49 27 -45 1 -50 2 -84 16 -16 7 -57 12 -93 12 -36 0 -64 4 -64
10 0 6 8 10 18 10 11 0 27 9 37 20 10 11 22 17 26 14 5 -3 6 2 3 10 -7 17 -3
18 74 20 37 1 42 -2 38 -17 -3 -13 0 -17 11 -13 8 3 21 6 29 6 8 0 14 5 14 11
0 5 -5 7 -11 3 -6 -3 -3 9 6 27 16 29 19 31 30 16 6 -9 16 -13 20 -9 5 4 6 0
2 -9 -4 -12 1 -18 17 -21 17 -3 23 0 22 11 -2 24 54 28 71 5 11 -16 17 -17 33
-6 11 7 31 10 44 6 20 -5 25 -2 28 18 2 16 11 25 33 29 48 10 114 5 119 -8z
m780 -952 c3 -5 -1 -21 -9 -37 -7 -15 -11 -32 -8 -38 4 -6 8 -6 11 2 7 22 22
12 22 -15 0 -33 -24 -106 -32 -98 -8 9 -26 -18 -30 -45 -8 -63 -125 -154 -225
-175 -26 -6 -27 -5 -9 9 10 8 15 20 10 27 -4 7 -3 10 3 6 6 -4 18 2 28 13 10
11 24 20 32 20 7 0 13 5 13 10 0 6 -4 10 -10 10 -5 0 -10 7 -10 16 0 11 6 14
21 9 13 -4 27 0 40 11 25 23 24 38 -2 31 -15 -4 -19 -2 -15 10 3 8 6 23 6 33
0 10 9 20 20 23 13 3 18 10 14 21 -4 10 6 27 25 47 17 17 31 37 31 45 0 15 48
74 61 74 4 0 10 -4 13 -9z m-3672 -556 c4 -5 12 -11 18 -11 20 -3 21 -4 13
-16 -4 -7 -8 -17 -8 -23 0 -5 -10 -11 -22 -13 -12 -2 -33 -14 -48 -28 -14 -13
-30 -22 -34 -19 -5 2 -17 -2 -27 -10 -17 -13 -17 -14 -1 -9 13 5 16 2 11 -9
-3 -8 -1 -18 5 -22 22 -13 11 -47 -19 -58 -16 -6 -30 -15 -30 -19 0 -4 -5 -8
-12 -8 -6 0 -8 3 -5 6 4 4 -7 22 -23 41 -17 18 -30 43 -30 53 0 17 7 20 39 20
22 0 44 6 51 15 7 8 9 15 4 15 -4 0 3 11 15 24 12 13 24 30 25 37 8 37 19 49
45 47 14 -2 29 -7 33 -13z m-662 -534 c31 -31 57 -71 90 -138 11 -23 29 -47
40 -53 11 -6 20 -19 20 -30 0 -10 5 -22 10 -25 6 -4 8 -11 5 -16 -4 -5 0 -11
7 -14 8 -3 15 -18 16 -33 1 -15 7 -39 13 -54 22 -53 -15 -408 -42 -408 -5 0
-9 -8 -9 -18 0 -25 -20 -42 -49 -42 -25 1 -25 1 -7 15 11 8 15 15 9 15 -17 0
-26 50 -12 66 17 20 2 31 -22 16 -21 -13 -59 -8 -59 9 0 5 -13 9 -29 9 -17 0
-32 4 -35 9 -9 14 22 34 44 28 11 -3 20 -2 20 3 0 4 11 5 25 2 22 -4 25 -1 25
22 0 14 -3 26 -7 26 -5 0 -8 21 -8 48 0 64 -33 128 -89 175 -37 31 -44 42 -37
56 5 9 6 23 2 30 -4 7 -6 23 -3 37 2 13 -1 31 -8 39 -10 12 -10 21 -1 43 7 16
11 33 10 38 -1 5 1 29 5 54 5 27 3 56 -3 74 -10 25 -9 27 5 22 12 -4 15 -2 10
9 -10 26 33 17 64 -14z m725 -548 c-1 -16 -5 -46 -9 -68 -3 -22 -8 -71 -11
-110 -2 -38 -9 -87 -15 -109 -7 -21 -9 -47 -7 -57 3 -11 2 -19 -2 -19 -4 0 -7
-24 -6 -52 1 -31 -5 -62 -13 -76 -22 -35 -11 -34 41 4 62 45 110 111 102 141
-6 24 10 33 18 11 6 -19 56 20 87 66 l24 37 77 -7 c43 -3 97 -4 121 0 45 7 52
17 84 121 5 17 14 29 19 29 10 -2 85 -129 83 -142 -2 -12 74 -20 122 -13 25 3
61 6 80 5 19 0 140 -2 267 -2 l233 -2 27 -32 c28 -31 132 -145 166 -180 20
-21 14 -40 -23 -73 -33 -30 -41 -51 -31 -78 6 -16 6 -28 -1 -35 -8 -8 -6 -16
6 -27 23 -24 17 -73 -10 -78 -5 -1 -9 -15 -9 -32 -1 -51 -33 -118 -53 -110 -9
3 -12 -1 -7 -15 5 -16 2 -20 -14 -20 -11 0 -24 8 -30 18 -8 15 -8 108 -1 122
8 14 4 70 -5 70 -5 0 -3 5 5 10 11 7 12 10 2 10 -8 0 -34 -15 -59 -32 -38 -28
-44 -37 -39 -59 3 -14 0 -31 -7 -38 -8 -8 -7 -11 7 -11 9 0 14 -5 11 -11 -4
-5 -1 -24 6 -40 10 -26 10 -33 -4 -46 -22 -23 -45 -2 -53 48 -4 22 -10 39 -15
39 -4 0 -9 10 -11 22 -5 32 -28 35 -28 4 0 -22 -4 -26 -31 -26 -16 0 -28 -4
-25 -9 8 -13 -18 -21 -35 -10 -10 6 -10 9 -1 9 15 0 16 36 2 45 -8 5 -8 11 -1
19 15 18 3 26 -34 26 -17 0 -36 5 -41 10 -7 7 -212 11 -612 11 -331 0 -602 2
-602 5 0 3 28 35 63 71 34 35 62 70 62 76 0 8 -27 13 -79 15 -86 3 -107 15
-128 75 -6 15 -14 27 -19 27 -13 0 -11 -14 3 -28 16 -16 4 -25 -22 -17 -14 4
-18 11 -13 18 5 7 7 42 5 80 -3 57 -6 67 -22 67 -20 0 -36 -16 -21 -22 5 -1
11 -9 13 -17 2 -9 -13 -14 -58 -16 -51 -3 -62 -1 -72 16 -7 10 -8 19 -4 19 15
0 92 81 92 96 0 8 7 17 15 20 8 4 15 13 15 21 0 10 7 14 19 10 14 -3 21 2 25
19 4 13 11 24 16 24 6 0 20 10 32 22 19 19 22 20 33 5 17 -24 28 -21 15 3 -17
31 18 40 42 11 19 -25 24 -43 9 -38 -5 1 -9 -1 -10 -5 -3 -27 2 -36 22 -42 22
-6 22 -7 3 -21 -12 -9 -15 -15 -7 -15 11 0 11 -3 1 -15 -7 -8 -19 -15 -26 -15
-8 0 -14 -5 -14 -11 0 -6 12 -9 28 -6 15 2 21 2 15 0 -18 -6 -16 -23 2 -23 21
0 19 -27 -2 -39 -12 -7 -14 -10 -4 -11 11 0 11 -3 1 -15 -20 -24 -30 -17 -28
18 4 40 -25 46 -30 7 -3 -29 22 -64 53 -74 18 -5 22 1 34 52 7 31 19 64 26 72
17 20 38 98 36 134 -1 16 6 37 15 47 9 10 14 25 11 34 -5 10 0 15 13 15 22 0
28 19 8 21 -10 0 -10 2 0 6 17 7 15 30 -4 37 -13 5 -14 9 -4 21 7 8 16 12 22
9 5 -3 14 -1 21 4 7 5 21 12 32 15 11 2 21 5 22 6 0 0 0 -11 -2 -26z m1380
-260 c29 -14 40 -15 55 -5 24 15 50 16 50 2 0 -5 9 -10 20 -10 11 0 20 5 20
10 0 6 16 10 34 10 28 0 40 -7 61 -35 15 -19 25 -39 23 -44 -1 -5 -27 -35 -57
-66 -51 -53 -54 -55 -72 -39 -10 9 -21 25 -24 35 -4 11 -15 19 -25 19 -10 0
-22 9 -25 21 -4 11 -18 25 -31 31 -13 6 -26 19 -29 29 -3 10 -15 21 -26 24
-10 4 -19 13 -19 21 0 18 2 18 45 -3z m-1935 -185 c0 -5 -8 -9 -17 -9 -16 -1
-16 -2 -1 -6 9 -2 23 -22 32 -44 16 -40 53 -58 41 -19 -8 25 13 27 22 3 11
-29 30 -45 36 -30 4 9 8 8 16 -3 5 -8 8 -16 7 -18 -4 -3 -159 -5 -311 -3
l-100 1 40 27 c40 27 40 27 15 34 l-25 6 28 7 c15 3 38 8 52 11 17 4 25 12 25
25 0 19 14 24 58 23 6 -1 12 5 12 13 0 8 5 14 10 14 6 0 10 -4 10 -10 0 -5 5
-10 10 -10 6 0 10 8 10 17 0 15 2 14 15 -3 8 -10 15 -22 15 -26z m3473 -923
c54 -52 105 -95 114 -95 17 0 63 -44 63 -61 0 -14 -42 -9 -71 9 -106 69 -125
86 -175 162 -34 49 -47 80 -36 80 4 0 51 -43 105 -95z m2960 -137 c3 -10 9
-10 26 0 28 17 81 16 81 -2 0 -20 30 -43 38 -29 5 8 15 3 31 -13 13 -13 19
-24 13 -24 -5 0 -12 -9 -15 -21 -3 -12 -10 -18 -16 -14 -6 3 -11 0 -11 -8 0
-18 -24 -29 -46 -20 -9 3 -25 7 -37 8 -12 1 -27 3 -33 4 -6 0 -11 17 -10 38 1
34 -2 37 -31 44 -18 3 -40 13 -49 20 -15 12 -14 14 7 20 37 11 47 10 52 -3z
m-2477 -1031 c62 -52 348 -310 394 -354 l25 -24 -25 5 c-36 8 -81 15 -215 37
-118 19 -220 46 -180 49 20 1 20 1 1 15 -16 12 -17 15 -4 15 12 0 15 8 13 33
-3 35 -12 80 -22 112 -4 11 -6 30 -4 43 1 12 -3 22 -9 22 -6 0 -8 5 -5 10 7
11 -19 42 -28 33 -4 -3 -4 5 -2 18 3 13 -1 27 -8 31 -6 4 -7 8 -2 8 6 0 37
-24 71 -53z m-3051 -727 c-3 -6 7 -18 24 -28 17 -9 31 -24 31 -33 0 -9 11 -21
25 -27 14 -6 25 -16 25 -21 0 -5 23 -33 51 -61 30 -31 48 -57 45 -66 -4 -10 2
-14 20 -14 40 0 27 -34 -16 -41 -26 -5 -19 -6 30 -7 36 0 59 2 52 5 -17 7 4
33 27 33 9 0 21 10 26 22 6 13 22 29 38 36 15 7 27 18 27 23 0 16 92 119 107
119 7 0 13 6 13 14 0 8 12 24 26 35 25 19 40 21 191 21 l164 0 -15 -22 c-9
-13 -72 -79 -140 -148 l-124 -125 -46 3 c-25 2 -46 0 -46 -6 0 -13 143 -23
305 -21 75 0 139 -1 142 -5 3 -3 -79 -92 -184 -198 -104 -106 -214 -219 -244
-251 l-54 -57 -497 2 -498 3 70 75 c84 89 115 130 101 130 -6 0 -11 -4 -11
-10 0 -12 -48 -13 -105 -2 l-40 7 55 6 c35 4 1 6 -92 7 -91 1 -148 6 -148 12
0 6 17 11 38 11 l37 2 -42 6 c-24 4 -45 10 -48 13 -3 2 6 18 20 34 14 16 25
32 25 37 0 4 9 7 20 7 13 0 20 7 20 20 0 13 7 20 20 20 12 0 20 -7 20 -18 0
-19 35 -46 49 -38 13 9 0 56 -16 56 -10 0 -13 11 -11 45 2 25 6 45 9 45 13 0
116 -33 209 -67 160 -59 137 -63 226 33 l79 84 87 0 c72 0 86 3 82 14 -6 15
-55 36 -83 36 -14 0 -14 -2 -1 -10 13 -8 12 -10 -2 -10 -10 0 -18 -6 -18 -12
-1 -7 -9 2 -19 21 -11 21 -21 30 -25 22 -8 -12 -37 -15 -35 -3 4 24 -6 31 -46
38 -50 7 -59 16 -61 57 -2 36 -10 43 -29 27 -13 -10 -19 -10 -33 3 -13 12 -21
14 -29 6 -14 -14 -33 -3 -33 17 0 14 -2 14 -15 0 -8 -8 -15 -22 -15 -32 0 -23
-13 -9 -17 18 -2 12 -9 25 -15 29 -6 4 -12 18 -13 31 -1 18 -9 24 -35 28 -18
3 -35 11 -38 18 -3 9 42 12 203 12 136 0 204 -3 200 -10z m5662 -82 c-9 -37
-45 -252 -67 -403 -11 -77 -23 -148 -26 -157 -5 -17 -41 -18 -560 -18 l-554 0
-10 24 c-4 13 -9 68 -10 122 -1 55 -3 128 -3 164 l-2 65 45 13 c25 8 52 16 60
19 8 4 23 5 33 4 9 -1 17 2 17 7 0 5 14 7 30 4 22 -3 30 0 30 11 0 25 21 31
27 8 4 -14 11 -20 22 -17 9 3 66 14 126 25 114 21 364 69 495 96 41 8 118 23
170 34 52 10 115 19 139 20 40 1 43 -1 38 -21z m-6788 -31 c23 -15 41 -34 41
-42 0 -8 9 -19 20 -25 16 -9 20 -8 20 5 0 22 34 15 38 -8 2 -11 -3 -17 -13
-17 -13 0 -16 -6 -11 -25 7 -29 46 -91 75 -121 12 -12 21 -28 21 -36 0 -9 7
-18 15 -22 8 -3 15 -13 15 -23 0 -10 14 -34 30 -53 28 -33 34 -44 31 -62 0 -4
11 -16 26 -28 14 -11 23 -23 20 -27 -4 -3 -2 -12 4 -20 9 -11 -3 -13 -70 -13
-73 0 -102 10 -68 23 6 3 -30 6 -81 6 -59 1 -91 5 -87 11 3 6 16 11 28 11 19
1 19 2 3 6 -15 4 -16 7 -5 14 12 7 12 9 -1 9 -8 0 -21 4 -29 9 -21 13 4 41 35
41 13 0 24 5 24 10 0 6 -8 10 -18 10 -11 0 -24 11 -30 24 -6 13 -19 27 -29 30
-14 4 -19 16 -20 42 -1 19 -9 44 -18 54 -22 24 -9 70 25 87 22 11 40 31 40 46
0 12 -38 8 -43 -5 -2 -7 -9 5 -15 27 -6 22 -21 46 -32 53 -26 16 -27 43 -1 39
10 -2 37 -15 60 -30z m3917 -129 c-12 -57 -18 -110 -26 -217 -11 -133 -2 -175
39 -190 23 -8 21 -10 -19 -11 -71 -2 -105 -3 -270 -1 -131 1 -151 4 -132 14
12 7 19 16 15 21 -4 4 0 4 10 0 9 -3 17 -2 17 4 0 6 -5 12 -10 14 -6 2 17 30
50 63 33 33 60 65 61 70 0 6 18 25 39 43 37 32 39 32 59 15 12 -9 21 -26 21
-35 0 -11 11 -23 27 -29 23 -8 30 -7 41 8 7 10 16 17 20 15 4 -1 8 9 10 23 2
17 -1 25 -10 23 -8 -2 -12 4 -10 16 2 11 -1 15 -7 11 -7 -4 -11 4 -11 20 0 23
-3 25 -22 19 -17 -5 -7 11 37 59 66 71 78 78 71 45z m1365 -107 c-12 -7 -12
-13 -3 -24 7 -7 9 -17 5 -20 -3 -4 8 -7 25 -7 25 0 32 -4 32 -19 0 -11 3 -26
6 -34 3 -10 -4 -19 -23 -26 l-28 -11 33 6 c35 6 37 3 21 -28 -9 -17 -8 -24 2
-32 21 -17 23 -55 3 -63 -14 -5 -14 -8 7 -24 l24 -17 -25 -7 c-14 -3 -331 -4
-705 -3 -596 3 -680 5 -681 18 0 8 1 10 3 3 3 -8 23 -10 60 -7 64 5 65 5 54
23 -5 7 -33 16 -62 20 -58 8 -53 14 26 30 28 6 113 24 190 41 158 34 328 69
395 80 63 10 168 30 210 40 19 5 73 13 120 19 118 15 251 39 258 45 3 3 19 6
36 6 23 0 27 -3 17 -9z m-2465 -367 c-4 -10 2 -14 19 -14 14 0 25 -4 25 -10 0
-5 -4 -10 -10 -10 -5 0 -10 -12 -10 -26 0 -17 -6 -28 -20 -31 -11 -3 -20 -12
-20 -19 0 -8 -5 -14 -11 -14 -5 0 -8 -4 -4 -9 10 -17 -25 -41 -51 -35 -15 4
-24 2 -24 -6 0 -6 -5 -8 -10 -5 -6 4 -8 11 -5 16 4 5 1 9 -6 9 -7 0 -19 8 -28
17 -18 18 -26 7 88 127 45 47 56 54 64 41 5 -9 6 -23 3 -31z m3069 -83 c3 -7
2 -49 -1 -93 l-7 -79 -81 3 -81 3 -3 84 c-2 61 1 87 10 93 22 14 157 5 163
-11z m855 -101 l0 -110 -85 0 c-50 0 -85 4 -85 10 0 6 32 10 75 10 l75 0 0 90
0 90 -70 0 -70 0 0 -70 0 -70 55 0 c32 0 55 -4 55 -10 0 -7 -24 -10 -62 -8
l-63 3 -3 74 c-2 41 -1 80 2 88 4 9 28 13 91 13 l85 0 0 -110z"/>
<path d="M6067 308 c-3 -34 -3 -66 -1 -70 3 -4 36 -8 75 -8 l69 0 0 70 0 70
-69 0 -68 0 -6 -62z"/>
<path d="M3555 13330 c-3 -5 -28 -10 -56 -10 -27 0 -49 -4 -49 -10 0 -21 36
-80 49 -80 11 0 11 -4 -2 -18 -20 -22 -22 -55 -4 -82 9 -15 9 -22 1 -28 -7 -4
-19 -23 -28 -42 -8 -19 -20 -42 -24 -50 -15 -25 -40 -84 -47 -109 -7 -24 -7
-24 45 -17 45 6 52 5 56 -11 4 -14 15 -18 53 -18 29 0 47 4 44 10 -2 6 11 16
28 22 20 8 30 18 28 30 -1 10 1 26 6 36 4 9 5 24 1 32 -3 8 0 29 6 46 8 23 8
37 0 49 -8 13 -3 24 29 53 21 21 45 37 54 37 8 0 12 6 10 13 -4 8 10 13 47 14
29 1 54 7 56 12 2 6 14 11 27 11 13 0 25 6 28 13 3 8 28 11 92 10 50 -2 93 2
101 8 8 7 14 7 19 -1 12 -19 45 -11 45 10 0 14 -6 20 -16 18 -21 -4 -45 32
-26 39 21 8 13 23 -13 23 -19 0 -26 -7 -34 -32 -9 -31 -9 -31 -10 -7 -1 27
-25 46 -36 29 -16 -25 -105 -52 -105 -31 0 11 -81 2 -97 -11 -20 -16 -43 -1
-43 27 l0 25 -114 0 c-66 0 -117 -4 -121 -10z"/>
<path d="M7353 11727 c-62 -10 -63 -11 -63 -42 0 -18 -5 -45 -10 -62 -7 -19
-8 -54 -3 -94 8 -60 10 -64 33 -61 14 1 62 3 108 3 l82 0 0 94 c0 89 -1 93
-26 110 -20 13 -24 22 -20 41 7 27 4 28 -101 11z"/>
<path d="M396 10555 c-4 -11 9 -35 40 -71 l47 -54 51 6 c60 8 96 20 96 32 0 5
-9 17 -19 26 -16 14 -18 23 -10 42 11 31 -10 42 -47 25 -32 -14 -127 -14 -141
0 -7 7 -12 6 -17 -6z"/>
<path d="M670 9958 c-52 -10 -214 -44 -360 -74 -146 -30 -275 -56 -287 -59
l-23 -5 0 -316 0 -315 43 6 c23 3 51 8 62 10 11 2 28 4 37 4 12 1 16 9 15 28
-2 24 3 28 33 34 76 16 73 17 87 -33 l14 -48 38 24 c21 13 58 30 82 37 57 16
70 28 41 36 -13 3 -21 10 -19 16 4 14 107 54 156 63 20 3 60 14 89 25 69 25
80 24 126 -11 22 -17 48 -30 59 -30 15 0 18 5 12 29 -7 34 5 46 39 37 19 -5
28 -22 50 -96 15 -49 30 -90 34 -90 4 0 18 16 31 35 35 52 22 110 -85 385 -24
63 -44 126 -44 140 0 14 -11 33 -27 45 -19 16 -26 30 -25 53 0 17 -6 36 -14
43 -8 6 -14 20 -14 30 0 24 -23 24 -150 -3z"/>
<path d="M6830 9557 c-36 -11 -68 -24 -71 -29 -3 -5 -46 -13 -96 -18 -94 -10
-123 -17 -123 -30 0 -4 10 -10 23 -13 36 -9 125 -41 132 -48 3 -4 22 0 43 7
20 7 52 13 70 14 18 0 65 14 104 30 38 17 81 30 94 30 12 0 36 5 51 12 37 16
36 15 28 27 -4 7 -17 6 -42 -4 -44 -19 -53 -19 -53 -1 0 21 -40 46 -70 45 -14
-1 -54 -10 -90 -22z"/>
<path d="M625 9106 c-43 -13 -35 -31 9 -20 18 4 27 1 35 -14 17 -32 14 -44 -9
-37 -12 4 -27 2 -34 -4 -16 -13 -74 -8 -105 8 -17 9 -24 8 -41 -9 -14 -14 -27
-18 -50 -14 -35 8 -46 -9 -31 -49 12 -30 43 -36 67 -12 9 8 24 15 34 15 10 0
30 6 45 14 16 8 42 12 66 9 26 -4 47 0 64 11 14 9 31 14 37 10 8 -5 9 1 4 21
-7 27 -7 27 38 23 54 -4 65 10 32 41 -26 24 -95 27 -161 7z"/>
<path d="M16 9011 c-13 -14 -16 -42 -16 -130 0 -97 3 -115 19 -133 17 -18 24
-19 52 -9 25 9 34 8 41 -1 11 -18 4 -32 -18 -37 -10 -1 -26 -9 -34 -16 -21
-17 -50 -26 -50 -15 0 5 8 14 17 19 16 10 17 12 2 23 -9 7 -18 20 -22 28 -3 8
-6 -13 -6 -46 -1 -59 0 -61 23 -57 13 3 27 0 30 -6 4 -6 16 -11 27 -11 25 0
25 -27 -2 -35 -29 -9 -18 -29 18 -33 23 -2 32 2 35 16 3 12 18 21 38 26 45 9
47 2 8 -26 -37 -26 -47 -68 -16 -68 10 0 18 5 18 10 0 6 8 10 18 10 10 0 22 3
26 7 10 10 46 11 40 1 -3 -4 0 -8 5 -8 6 0 12 5 12 10 1 6 2 15 3 22 2 18 23
21 29 3 4 -8 1 -15 -6 -15 -10 -1 48 -30 59 -30 14 0 0 84 -19 121 -13 24 -29
61 -36 82 -12 35 -16 38 -40 32 -36 -8 -43 2 -76 100 -15 44 -33 91 -40 105
-7 14 -17 37 -23 51 -9 22 -16 26 -55 26 -31 1 -51 -4 -61 -16z"/>
<path d="M455 8834 c-11 -8 -19 -24 -17 -34 2 -11 -1 -27 -6 -36 -6 -11 -2
-37 14 -82 13 -36 24 -66 24 -68 0 -2 25 -1 55 0 41 3 64 11 89 30 19 14 41
26 50 26 8 0 18 5 21 11 5 6 26 8 61 3 41 -5 57 -3 69 9 8 9 15 20 15 25 0 6
14 22 31 36 l31 26 -24 9 c-13 6 -17 10 -10 10 6 1 12 8 12 16 0 18 -12 19
-28 3 -17 -17 -42 -19 -42 -2 0 8 -7 14 -15 14 -8 0 -15 -4 -15 -9 0 -5 -21
-12 -46 -16 -26 -3 -53 -9 -60 -12 -10 -3 -14 3 -14 21 0 25 -1 25 -67 21 -38
-2 -75 -6 -85 -10 -10 -4 -17 -1 -20 9 -3 13 -5 13 -23 0z"/>
<path d="M6307 8389 c-10 -6 -27 -9 -36 -6 -20 5 -51 -9 -51 -23 0 -5 17 -14
38 -21 65 -20 80 -42 37 -53 -16 -4 -25 -13 -25 -26 0 -15 -7 -20 -25 -20 -14
0 -25 5 -25 10 0 6 -9 10 -20 10 -26 0 -25 -14 2 -45 24 -28 42 -31 78 -10 22
13 23 14 5 15 -19 1 -19 1 -1 11 13 8 25 8 42 0 19 -8 24 -8 24 4 0 8 7 15 15
15 8 0 15 -7 15 -15 0 -9 6 -12 15 -9 12 5 13 10 4 20 -9 11 -7 14 10 14 14 0
20 -4 15 -11 -13 -21 50 0 69 24 15 17 16 22 5 26 -7 2 -19 12 -26 23 -16 22
-52 24 -52 3 0 -8 7 -15 15 -15 8 0 15 -4 15 -9 0 -13 -28 -22 -35 -11 -3 5
-20 13 -38 18 -28 7 -32 12 -29 38 2 16 9 35 14 42 13 15 -28 16 -55 1z"/>
<path d="M740 8109 c-47 -10 -130 -31 -130 -33 0 -1 4 -17 10 -35 6 -23 6 -39
-1 -47 -7 -9 -5 -15 9 -23 11 -6 22 -8 25 -5 3 3 29 9 59 14 29 5 80 15 113
23 50 11 59 16 57 33 -2 10 -6 34 -9 52 -5 30 -7 32 -47 31 -22 -1 -61 -5 -86
-10z"/>
<path d="M314 8016 c-231 -49 -234 -50 -234 -72 0 -11 -5 -14 -18 -9 -20 8
-21 8 -44 6 -19 -1 -24 -42 -12 -88 7 -26 36 -29 107 -14 23 5 69 15 102 21
33 7 114 25 180 41 66 16 126 29 133 29 8 0 20 7 28 15 9 8 11 15 5 15 -15 0
-14 47 0 52 18 6 -8 48 -29 47 -9 -1 -107 -20 -218 -43z"/>
<path d="M970 7652 c0 -7 -25 -12 -80 -16 -14 0 -31 -5 -37 -9 -7 -4 -45 -14
-85 -22 -40 -7 -91 -19 -113 -25 -22 -6 -89 -22 -150 -36 -60 -13 -121 -32
-135 -42 -14 -11 -37 -23 -50 -27 -14 -4 -32 -13 -40 -20 -19 -16 -110 -30
-110 -16 0 5 6 11 13 14 6 2 9 7 6 11 -3 3 -23 0 -45 -8 -21 -8 -31 -15 -21
-15 26 -1 21 -14 -13 -34 -30 -18 -39 -40 -21 -52 5 -3 7 -21 4 -40 l-5 -34
38 5 c58 8 62 11 66 36 2 16 10 23 26 24 21 1 21 0 7 -16 -8 -9 -15 -19 -15
-22 0 -6 30 -3 50 5 8 4 44 13 80 21 133 29 169 42 199 74 31 34 81 44 81 18
0 -17 48 -12 112 10 20 7 39 10 41 7 3 -3 34 4 69 15 35 11 82 25 106 32 25 8
54 27 72 48 l29 34 -22 44 c-13 28 -28 44 -39 44 -10 0 -18 -4 -18 -8z"/>
<path d="M2420 3102 c0 -21 7 -32 26 -41 18 -8 25 -17 21 -30 -3 -13 3 -23 19
-32 13 -7 24 -21 24 -31 0 -11 7 -26 15 -34 8 -9 15 -24 15 -35 0 -10 5 -19
11 -19 5 0 15 -13 20 -29 6 -15 21 -33 34 -39 14 -7 25 -16 25 -22 0 -5 9 -10
20 -10 22 0 42 51 22 58 -7 2 -12 10 -12 17 0 7 -4 15 -8 17 -5 2 -23 28 -40
58 -26 48 -34 55 -58 52 -23 -3 -26 0 -21 18 3 12 4 20 1 17 -7 -7 -94 84 -94
99 0 8 -4 14 -10 14 -5 0 -10 -13 -10 -28z"/>
<path d="M750 2930 c0 -12 -10 -25 -25 -32 -32 -14 -34 -57 -4 -76 12 -8 18
-19 15 -28 -4 -11 7 -14 59 -14 61 0 65 1 65 23 0 19 -20 66 -55 129 -14 26
-55 24 -55 -2z"/>
</g>
</svg>
